<svg width="68" height="68" viewBox="0 0 68 68" fill="none" xmlns="http://www.w3.org/2000/svg">
<path d="M18.5762 21.1405C18.7998 20.7276 19.4311 20.1169 19.7784 19.7809C19.7847 19.7747 19.791 19.7685 19.7974 19.7623C19.8798 19.6826 19.9546 19.6043 20.0422 19.5124C20.251 19.2934 20.5331 18.9975 21.1679 18.4224C21.3347 18.2385 21.5024 18.0554 21.6712 17.8734C23.4942 15.9074 25.3885 14.0075 27.2967 12.1205C27.3193 12.0953 27.3423 12.0696 27.3655 12.0437C27.8139 11.5424 28.3699 10.9208 28.7574 10.5656C29.2501 10.114 29.5946 9.81645 29.879 9.57349C31.3956 8.07558 32.9049 6.57087 34.3782 5.03284C34.84 4.5508 35.2982 4.06535 35.752 3.57594C36.1699 3.12527 36.5852 2.67196 36.998 2.21654C37.2227 1.93679 37.432 1.66673 37.626 1.4163C37.6294 1.41201 37.6327 1.40772 37.636 1.40343L38.1231 0.819591L38.8205 1.30938C39.1883 1.54834 39.5157 1.76143 39.7761 1.95124C40.4115 2.41422 41.0863 2.99801 41.5874 3.43156C41.6693 3.50241 41.7466 3.56932 41.8183 3.63096C42.2418 3.94261 42.6662 4.25344 43.0907 4.56391C43.1123 4.5932 43.1339 4.62297 43.1558 4.65331C43.4291 5.0319 43.8642 5.37073 44.5489 5.90424C44.8471 6.13657 45.1927 6.40591 45.5929 6.73141C45.8508 6.94115 45.9535 7.08686 46.0375 7.20587C46.0622 7.24088 46.0854 7.27368 46.1103 7.30503C46.1958 7.41249 46.3278 7.47217 46.4838 7.54269C46.6861 7.63417 46.9289 7.74387 47.1627 7.99983C47.9076 8.81539 48.3618 9.01396 48.7053 9.16416C48.8061 9.20822 48.8974 9.24822 48.9837 9.29833C49.2636 9.46081 49.5957 9.7773 49.8298 10.038C50.0154 10.2447 50.4759 10.5448 50.8402 10.753C50.9779 10.8317 51.1454 10.9622 51.3426 11.116C51.5466 11.2752 51.7826 11.4594 52.0506 11.6367C52.7279 12.0846 53.086 12.325 53.3737 12.5184C53.4558 12.5735 53.5321 12.625 53.6085 12.6761C53.8501 12.8379 54.1442 13.0457 54.442 13.2562C54.7983 13.5081 55.16 13.7637 55.4429 13.9484C56.1106 14.5107 56.7738 15.0789 57.4369 15.6469C57.7773 15.9389 58.047 16.2917 58.1831 16.6317C58.3191 16.9718 58.3113 17.2702 58.1581 17.4657C58.0049 17.6613 57.717 17.7402 57.3543 17.6895C56.9916 17.6386 56.5844 17.4613 56.2195 17.2005C55.4847 16.6748 54.7497 16.1491 54.0197 15.617C53.1306 14.9689 52.2487 14.3113 51.3831 13.6331C50.7776 13.1586 50.1758 12.6795 49.5768 12.1967C49.5152 12.1469 49.4536 12.0971 49.392 12.0474C48.8455 11.6969 48.3035 11.3429 47.9336 11.0782C47.6281 10.8596 47.4329 10.6652 47.2658 10.4987C47.1507 10.3842 47.0489 10.2828 46.9336 10.1959C46.8717 10.1492 46.786 10.0869 46.6827 10.0117C46.2609 9.70469 45.5445 9.18324 44.9454 8.638C44.6796 8.39606 44.384 8.09813 44.1018 7.81369C43.6984 7.40698 43.3221 7.02775 43.0988 6.87875C42.7068 6.61712 42.3013 6.26083 41.9431 5.94597C41.6013 5.64563 41.3024 5.383 41.0991 5.27621C40.8561 5.14864 40.6873 4.99077 40.4363 4.75615C40.2622 4.59343 40.0484 4.39383 39.743 4.14158C39.3904 3.85037 39.1572 3.62361 38.959 3.43086C38.68 3.15958 38.4701 2.95549 38.0932 2.73304C38.0052 2.6811 37.9171 2.62775 37.83 2.57347L38.8136 2.49538C38.5832 2.8046 38.3409 3.09821 38.1162 3.31715C37.9866 3.44341 37.8477 3.59649 37.7032 3.75578C37.5119 3.96666 37.3106 4.18842 37.1079 4.37336C36.9409 4.52577 36.7789 4.62954 36.6356 4.72136C36.5909 4.75 36.548 4.77754 36.5073 4.80498C36.3857 4.93699 36.2644 5.0692 36.1434 5.20176C36.1293 5.22835 36.1149 5.25659 36.0997 5.286C36.0235 5.43359 35.9298 5.61496 35.7842 5.81204C35.5537 6.12396 35.3039 6.35365 35.0403 6.59583C34.8351 6.78438 34.6215 6.98051 34.4023 7.22915C34.2529 7.3987 34.0924 7.60076 33.9333 7.80104C33.697 8.0985 33.4636 8.39219 33.2736 8.57042C33.2024 8.6372 33.1233 8.678 33.0449 8.71825C33.0445 8.7184 33.0441 8.71854 33.0437 8.71868C33.0384 8.72142 33.0331 8.7242 33.0278 8.72694C32.6143 9.20673 32.2026 9.68818 31.7919 10.1705C31.7603 10.216 31.7283 10.2619 31.6965 10.3073C31.5411 10.5292 31.39 10.7448 31.3118 10.9041C31.227 11.0768 30.9355 11.4383 30.6283 11.8194C30.4272 12.0689 30.2192 12.3268 30.0582 12.5455C29.9641 12.6734 29.8394 12.7619 29.7111 12.8529C29.5915 12.9378 29.4686 13.025 29.3645 13.1484C29.3124 13.2103 29.2626 13.283 29.2094 13.3607C29.1626 13.429 29.1132 13.5013 29.0573 13.5732C29.0053 13.64 28.8652 13.7661 28.6857 13.9279C28.5748 14.0279 28.4488 14.1416 28.319 14.2632C28.0145 14.6202 27.7093 14.9768 27.4032 15.3324C27.3567 15.4227 27.3251 15.5091 27.3128 15.5894C27.304 15.647 27.3048 15.7037 27.3054 15.7617C27.3063 15.8408 27.3071 15.9225 27.2844 16.013C27.2666 16.0837 27.2255 16.1485 27.1804 16.1757C27.1594 16.1884 27.1377 16.193 27.1181 16.1972C27.0956 16.202 27.0755 16.2063 27.0618 16.2216C27.0519 16.2326 27.0483 16.2503 27.0438 16.2719C27.0365 16.3064 27.0269 16.3512 26.9868 16.3956C26.8376 16.5611 26.66 16.7417 26.4859 16.9185C26.2923 17.1152 26.1032 17.3074 25.9623 17.4697C25.8044 17.6514 25.5457 17.8792 25.2868 18.1074C25.1061 18.2666 24.9253 18.4262 24.7781 18.5704C24.6338 18.7118 24.5051 18.8789 24.3806 19.0408C24.2311 19.2352 24.0874 19.4222 23.9293 19.5478C23.8973 19.5731 23.8356 19.5842 23.7582 19.5982C23.7034 19.6082 23.6405 19.6198 23.5749 19.6386C23.4022 19.8249 23.2283 20.0101 23.0534 20.1945C23.0511 20.2045 23.0487 20.2148 23.0463 20.2252C23.0463 20.2254 23.0463 20.2256 23.0462 20.2258C22.9924 20.4604 22.9187 20.7815 22.5741 21.009C22.4865 21.0668 22.4091 21.0826 22.3394 21.0969C22.271 21.1109 22.2098 21.1234 22.1537 21.1727C22.0899 21.2287 22.0405 21.3187 21.9865 21.4168C21.9108 21.5546 21.8262 21.7085 21.6809 21.8069C21.6709 21.8136 21.6602 21.8208 21.6491 21.8283C21.5442 21.9 21.3889 22.0061 21.2032 22.0829C20.8185 22.4648 20.4309 22.8441 20.0417 23.2217C19.3928 23.8512 18.7389 24.4763 18.0852 25.1012C17.767 25.405 17.3967 25.636 17.0513 25.7393C16.7057 25.8423 16.4143 25.8101 16.2356 25.6444C16.0569 25.4786 16.0029 25.1906 16.0796 24.8382C16.1565 24.486 16.359 24.0994 16.6379 23.7591C17.0932 23.2046 17.5486 22.6499 18.0063 22.0976C18.0281 22.0667 18.0502 22.0357 18.0723 22.0051C18.2371 21.7771 18.363 21.5405 18.4889 21.3037C18.5178 21.2493 18.5468 21.1948 18.5762 21.1405ZM63.3072 19.7904C63.4201 19.7305 63.4696 19.8299 63.4968 19.8845C63.4973 19.8855 63.4979 19.8864 63.4984 19.8874C63.5049 19.9003 63.5136 19.9092 63.5239 19.9196C63.5486 19.9442 63.5818 19.9775 63.6126 20.0962C63.6367 20.1115 63.6599 20.1279 63.6822 20.1453C63.9233 20.3343 64.1045 20.5996 64.2739 20.8801C64.2773 20.882 64.2808 20.8839 64.2843 20.8859C64.3522 20.9238 64.4364 20.9708 64.4572 21.0413C64.4837 21.1309 64.4934 21.2023 64.5 21.2627C64.6338 21.4864 64.7737 21.7022 64.9439 21.8795C64.9972 21.9351 65.0536 21.9868 65.1136 22.0338C65.1689 22.0771 65.2265 22.1175 65.286 22.1553C65.3339 22.1605 65.3831 22.1607 65.4288 22.1609C65.4929 22.1612 65.5499 22.1616 65.5863 22.1756C65.6738 22.2093 65.7273 22.3062 65.7669 22.3782C65.7734 22.39 65.7795 22.4011 65.7854 22.4111C65.8425 22.4356 65.9003 22.4592 65.9583 22.4825C65.9555 22.4927 65.9524 22.5031 65.9492 22.5138C65.9097 22.6473 65.9603 22.6849 66.0399 22.7441C66.0745 22.77 66.1146 22.7999 66.1552 22.8436C66.1814 22.8718 66.1651 22.9243 66.1518 22.9671C66.1479 22.9796 66.1442 22.9914 66.142 23.0015C66.1343 23.036 66.1682 23.0188 66.2083 22.9985C66.2603 22.9721 66.3226 22.9404 66.3181 23.0096C66.3034 23.2301 66.423 23.1664 66.5134 23.1182C66.5399 23.1041 66.5639 23.0914 66.5813 23.0875C66.6377 23.0749 66.6515 23.1419 66.645 23.2141C66.6398 23.2713 66.7186 23.2723 66.7934 23.2537C66.8217 23.2466 66.8411 23.2611 66.864 23.2783C66.8876 23.2961 66.9148 23.3168 66.9595 23.319C67.0725 23.3248 67.1307 23.3302 67.1774 23.3347C67.1907 23.3359 67.203 23.3372 67.2155 23.3383C67.2549 23.3417 67.2982 23.353 67.3421 23.3645C67.3946 23.3783 67.4478 23.3923 67.4961 23.393C67.5555 23.4788 67.6104 23.5703 67.6653 23.6618C67.6934 23.7089 67.6634 23.8269 67.5786 23.9938C67.4937 24.1608 67.3618 24.362 67.2086 24.5576C67.0554 24.7531 66.8916 24.9292 66.7497 25.0516C66.6079 25.1738 66.5004 25.2314 66.4479 25.2154C66.3425 25.1828 66.2369 25.1503 66.1364 25.1114C66.0139 25.064 65.8987 25.0073 65.7999 24.9298C65.7307 24.8756 65.6652 24.8167 65.6026 24.7541C65.5961 24.7477 65.5897 24.7412 65.5833 24.7346C65.4875 24.7373 65.3952 24.7356 65.3421 24.7192C65.2983 24.7056 65.2938 24.6607 65.2899 24.6222C65.2873 24.5957 65.285 24.5723 65.2703 24.5642C65.2624 24.5599 65.2506 24.5554 65.2363 24.55C65.178 24.5278 65.079 24.4901 65.0432 24.3862C65.0273 24.3401 65.022 24.2697 65.017 24.2025C65.0099 24.1063 65.0032 24.0167 64.9665 24.0139C64.9021 24.009 64.8724 23.9471 64.8461 23.8924C64.8211 23.8402 64.7992 23.7946 64.7534 23.8113C64.6986 23.8312 64.6903 23.7991 64.6779 23.7515C64.6694 23.7184 64.6587 23.678 64.6294 23.6421C64.5956 23.6007 64.5878 23.5506 64.5813 23.508C64.5721 23.4481 64.5651 23.4031 64.4907 23.4176C64.4081 23.4338 64.3378 23.4303 64.3145 23.3865C64.3039 23.3665 64.284 23.3537 64.2632 23.3404C64.2357 23.3228 64.2068 23.3042 64.1963 23.2669C64.1877 23.2362 64.2007 23.1851 64.2122 23.1399C64.2157 23.1258 64.2191 23.1124 64.2217 23.1002C64.2052 23.088 64.1885 23.0761 64.1715 23.0646C64.1641 23.0686 64.1561 23.0732 64.1477 23.078C64.1059 23.1017 64.0545 23.1309 64.0158 23.1351C63.9546 23.1418 63.9408 23.0968 63.9264 23.0491C63.9152 23.012 63.9035 22.9733 63.8686 22.9566C63.8447 22.9451 63.8094 22.9425 63.7745 22.9399C63.7225 22.936 63.6713 22.9322 63.6591 22.8996C63.6545 22.8873 63.6657 22.8576 63.6768 22.8281C63.6769 22.8279 63.677 22.8277 63.6771 22.8276C63.6778 22.8255 63.6785 22.8236 63.6793 22.8216C63.6081 22.7951 63.5355 22.7706 63.4621 22.7471C63.4524 22.7493 63.4426 22.7515 63.433 22.7535C63.3861 22.7637 63.3405 22.7736 63.2938 22.8017C63.2432 22.8321 63.1818 22.8248 63.117 22.817C63.0746 22.8119 63.0307 22.8067 62.9876 22.8117C62.9623 22.8147 62.9681 22.7796 62.9741 22.7434C62.9797 22.7097 62.9855 22.675 62.9663 22.6697C62.9566 22.667 62.9408 22.671 62.9239 22.6753C62.9091 22.6791 62.8933 22.6832 62.8803 22.683C62.8682 22.6828 62.8618 22.6562 62.8535 22.6222C62.8484 22.6012 62.8425 22.5774 62.8342 22.5552C62.78 22.5374 62.7263 22.5191 62.6735 22.4997C62.6478 22.5143 62.6183 22.5363 62.5841 22.5674C62.5596 22.5898 62.5318 22.6177 62.5034 22.6462C62.4647 22.6849 62.4247 22.725 62.3897 22.7545C62.3623 22.7776 62.3469 22.7832 62.3513 22.7682C62.3534 22.7612 62.3596 22.7499 62.3653 22.7396C62.3718 22.7279 62.3775 22.7174 62.3755 22.7162C62.374 22.7154 62.3668 22.7217 62.3581 22.7293C62.3442 22.7414 62.3262 22.7571 62.3203 22.7535C62.2984 22.7403 62.2802 22.7165 62.2625 22.6932C62.2428 22.6673 62.2234 22.642 62.1998 22.6324C62.1734 22.6216 62.164 22.5701 62.1545 22.5185C62.1479 22.4826 62.1412 22.4467 62.1288 22.4245C62.1166 22.4026 62.0858 22.403 62.056 22.4034C62.0201 22.404 61.9855 22.4046 61.9864 22.3665C61.9866 22.3588 62.0054 22.3255 62.0289 22.2839C62.0455 22.2545 62.0645 22.2207 62.081 22.1889C62.0581 22.171 62.0362 22.1518 62.0152 22.1317C62.0112 22.1351 62.0072 22.1385 62.003 22.1421C62.003 22.1421 62.0029 22.1422 62.0028 22.1423C61.9099 22.2221 61.783 22.3313 61.8073 22.2259C61.8135 22.1991 61.8361 22.1584 61.8565 22.1217C61.8764 22.0857 61.8943 22.0535 61.8924 22.0422C61.8901 22.0295 61.8657 22.0421 61.8392 22.0558C61.802 22.0751 61.7604 22.0966 61.7695 22.0533C61.7701 22.0504 61.7708 22.0472 61.7715 22.0439C61.7777 22.0129 61.787 21.9672 61.8224 21.8882C61.7875 21.8324 61.755 21.7736 61.724 21.7128C61.6722 21.6116 61.6247 21.5051 61.5771 21.3987C61.5541 21.3466 61.5868 21.2269 61.6718 21.0609C61.7569 20.8947 61.8866 20.6969 62.0369 20.5051C62.1872 20.3133 62.3482 20.1402 62.4892 20.0178C62.63 19.8955 62.7384 19.8352 62.7944 19.845C62.8855 19.8615 62.9766 19.8779 63.0656 19.897C63.0721 19.8957 63.0785 19.8945 63.0847 19.8935C63.1309 19.8863 63.1965 19.8506 63.2621 19.8148C63.2772 19.8065 63.2923 19.7983 63.3072 19.7904Z" fill="black"/>
<path d="M23.8307 15.2198C24.1196 15.103 24.6765 15.1507 24.9828 15.1769C24.9885 15.1773 24.9941 15.1778 24.9997 15.1782C25.0724 15.1844 25.1412 15.186 25.2218 15.1878C25.4139 15.192 25.6735 15.1977 26.2153 15.2721C26.373 15.2694 26.5306 15.2679 26.6883 15.2679C28.3907 15.2679 30.0932 15.365 31.7957 15.4813C31.8172 15.4807 31.839 15.4801 31.8611 15.4795C32.2881 15.4674 32.8176 15.4525 33.1503 15.4951C33.5733 15.5493 33.8606 15.5996 34.0965 15.643C35.4487 15.7365 36.801 15.8202 38.1532 15.8547C38.577 15.8656 39.0009 15.8715 39.4247 15.8715C39.815 15.8715 40.2054 15.8678 40.5956 15.8608C40.8229 15.8354 41.039 15.8052 41.2394 15.7772C41.521 15.7379 41.7716 15.703 41.9787 15.6916C42.4776 15.6641 43.0435 15.7075 43.4637 15.7396C43.5324 15.7449 43.5973 15.7499 43.6572 15.7542C43.991 15.7382 44.3248 15.7212 44.6586 15.7037C44.6809 15.7134 44.7033 15.7236 44.7262 15.7339C45.011 15.8634 45.3612 15.8617 45.9124 15.8593C46.1524 15.8583 46.4306 15.8571 46.7582 15.8665C46.9692 15.8725 47.0776 15.9239 47.1662 15.9658C47.1922 15.9781 47.2167 15.9896 47.2414 15.9989C47.3262 16.0308 47.4156 15.9963 47.5212 15.9556C47.6581 15.9028 47.8224 15.8394 48.0395 15.8967C48.7312 16.0793 49.036 15.9554 49.2666 15.8617C49.3342 15.8342 49.3955 15.8094 49.4583 15.7956C49.6618 15.7509 49.9517 15.7952 50.1708 15.856C50.3446 15.9042 50.6922 15.8564 50.9558 15.7956C51.0555 15.7726 51.1903 15.772 51.3491 15.7715C51.5134 15.7709 51.7035 15.7704 51.9069 15.7446C52.4209 15.6794 52.694 15.6478 52.9136 15.6225C52.9762 15.6153 53.0345 15.6088 53.0927 15.6019C53.2768 15.5803 53.5052 15.5624 53.7365 15.5445C54.0132 15.5229 54.2941 15.5011 54.5078 15.4719C55.0618 15.5028 55.6158 15.541 56.1697 15.5791C56.4542 15.5989 56.7272 15.7103 56.9284 15.8939C57.1295 16.0778 57.2425 16.3175 57.2425 16.5659C57.2425 16.8143 57.1295 17.0539 56.9284 17.2378C56.7272 17.4214 56.4542 17.533 56.1697 17.5528C55.5965 17.5923 55.0232 17.6317 54.45 17.6631C53.7518 17.7014 53.0535 17.7278 52.3552 17.7278C51.8668 17.7278 51.3783 17.7218 50.8898 17.7112C50.8395 17.7101 50.7892 17.7089 50.7389 17.7077C50.3286 17.7689 49.919 17.8245 49.6304 17.8443C49.3922 17.8607 49.2185 17.828 49.0697 17.8001C48.9674 17.7809 48.8768 17.7639 48.7851 17.7666C48.7359 17.7681 48.6687 17.7718 48.5876 17.7764C48.2565 17.7949 47.6942 17.8263 47.1812 17.7666C46.9536 17.7401 46.6892 17.6879 46.4368 17.6381C46.0758 17.5668 45.7392 17.5004 45.5693 17.5208C45.2709 17.5566 44.9287 17.5263 44.6263 17.4994C44.3379 17.4738 44.0856 17.4514 43.9421 17.4928C43.7707 17.5423 43.6245 17.5221 43.4072 17.4922C43.2564 17.4715 43.0714 17.4463 42.82 17.4361C42.5297 17.4243 42.3243 17.3897 42.1498 17.3602C41.9041 17.3188 41.7192 17.2876 41.4437 17.3449C41.1377 17.4087 40.8178 17.4492 40.5659 17.4291C40.4512 17.4199 40.32 17.4221 40.1834 17.4245C40.0026 17.4276 39.8125 17.4308 39.6388 17.4079C39.4958 17.3891 39.3775 17.3408 39.2729 17.2982C39.2402 17.2849 39.2089 17.2721 39.1786 17.261C39.0646 17.2616 38.9506 17.2625 38.8367 17.2639C38.8182 17.2717 38.7988 17.2803 38.7786 17.2891C38.677 17.3337 38.5521 17.3883 38.3974 17.4155C38.1527 17.4585 37.9379 17.4316 37.7113 17.4029C37.5349 17.3807 37.3514 17.3574 37.141 17.3657C36.9975 17.3714 36.8342 17.3911 36.6722 17.4107C36.4317 17.4397 36.1942 17.4682 36.0292 17.4501C35.9673 17.4433 35.9142 17.413 35.8616 17.3829C35.8613 17.3827 35.8611 17.3825 35.8609 17.3823C35.8573 17.3803 35.8537 17.3783 35.8502 17.3762C35.4483 17.3993 35.0463 17.4248 34.6444 17.4516C34.6096 17.4593 34.5744 17.467 34.5395 17.4746C34.3691 17.5115 34.2035 17.5474 34.0955 17.5983C33.9785 17.6535 33.6843 17.6856 33.3743 17.7195C33.1713 17.7416 32.9614 17.7645 32.7901 17.7952C32.6899 17.8131 32.5949 17.7818 32.4971 17.7497C32.4059 17.7197 32.3122 17.6888 32.2098 17.6965C32.1586 17.7003 32.1032 17.7132 32.0441 17.727C31.992 17.7392 31.937 17.7521 31.8794 17.76C31.8259 17.7673 31.7067 17.7503 31.5538 17.7287C31.4594 17.7153 31.352 17.7002 31.2394 17.6878C30.9417 17.7072 30.6439 17.7259 30.3461 17.7432C30.284 17.7706 30.2301 17.8061 30.1875 17.8517C30.1569 17.8844 30.1308 17.9235 30.104 17.9635C30.0676 18.0178 30.0299 18.074 29.9779 18.1189C29.9373 18.1539 29.8895 18.1678 29.8573 18.1533C29.8423 18.1465 29.8308 18.1337 29.8204 18.1222C29.8084 18.1089 29.7978 18.0972 29.7847 18.0975C29.7753 18.0978 29.7655 18.1071 29.7535 18.1185C29.7343 18.1366 29.7093 18.16 29.6713 18.1608C29.5299 18.1639 29.3691 18.1565 29.2116 18.1491C29.0365 18.1408 28.8653 18.1329 28.7289 18.1399C28.5761 18.1477 28.3584 18.1129 28.1403 18.0782C27.9882 18.054 27.8358 18.0299 27.7051 18.02C27.577 18.0103 27.4436 18.0296 27.3145 18.0483C27.1594 18.0709 27.0103 18.0927 26.8836 18.0622C26.858 18.056 26.8261 18.0182 26.7862 17.971C26.7579 17.9375 26.7253 17.8993 26.6883 17.864C26.527 17.864 26.3656 17.8625 26.2043 17.8596C26.1986 17.8647 26.1928 17.8699 26.1869 17.8753C26.1868 17.8754 26.1867 17.8755 26.1866 17.8756C26.0541 17.9957 25.8728 18.16 25.6181 18.062C25.5533 18.0371 25.5126 17.991 25.4759 17.9496C25.4398 17.909 25.4076 17.8726 25.3604 17.8649C25.3068 17.8563 25.2435 17.8812 25.1745 17.9084C25.0777 17.9465 24.9695 17.9891 24.8609 17.9495C24.8535 17.9468 24.8456 17.9438 24.8373 17.9408C24.7586 17.9126 24.6421 17.8709 24.5262 17.7869C24.1823 17.7644 23.8383 17.7382 23.4944 17.7095C22.9212 17.6618 22.3478 17.6073 21.7747 17.5528C21.4958 17.526 21.2284 17.4117 21.0312 17.2286C20.834 17.0452 20.7231 16.8096 20.7231 16.5659C20.7232 16.3222 20.834 16.0867 21.0312 15.9033C21.2284 15.7202 21.4958 15.6059 21.7747 15.5791C22.2294 15.5359 22.6843 15.4926 23.1391 15.4528C23.1629 15.4477 23.1868 15.4428 23.2107 15.4382C23.388 15.4041 23.5525 15.3355 23.7171 15.2668C23.7549 15.251 23.7928 15.2352 23.8307 15.2198ZM61.2617 15.5292C61.3785 15.9655 61.3308 16.8068 61.3046 17.2695C61.3042 17.278 61.3037 17.2865 61.3033 17.295C61.2971 17.4048 61.2955 17.5087 61.2937 17.6304C61.2895 17.9207 61.2838 18.3128 61.2094 19.1313C61.2121 19.3694 61.2136 19.6076 61.2136 19.8457C61.2136 22.4174 61.1165 24.9891 61.0002 27.5608C61.0008 27.5932 61.0014 27.6263 61.0021 27.6597C61.0141 28.3047 61.029 29.1045 60.9864 29.6071C60.9322 30.246 60.8819 30.6799 60.8385 31.0364C60.745 33.079 60.6613 35.1217 60.6268 37.1643C60.616 37.8045 60.61 38.4448 60.61 39.085C60.61 39.6745 60.6137 40.2642 60.6207 40.8537C60.6461 41.197 60.6763 41.5234 60.7043 41.8261C60.7436 42.2515 60.7785 42.6301 60.7899 42.9429C60.8174 43.6965 60.7741 44.5514 60.7419 45.1862C60.7366 45.2899 60.7316 45.3879 60.7273 45.4785C60.7433 45.9827 60.7603 46.4869 60.7778 46.9911C60.7681 47.0248 60.758 47.0587 60.7476 47.0932C60.6181 47.5235 60.6198 48.0524 60.6222 48.885C60.6232 49.2476 60.6244 49.6679 60.615 50.1626C60.609 50.4814 60.5576 50.6452 60.5158 50.779C60.5034 50.8183 60.4919 50.8553 60.4826 50.8926C60.4507 51.0207 60.4852 51.1557 60.5259 51.3152C60.5787 51.5221 60.6421 51.7703 60.5848 52.0982C60.4023 53.1431 60.5261 53.6035 60.6198 53.9518C60.6473 54.0539 60.6721 54.1465 60.6859 54.2413C60.7306 54.5487 60.6863 54.9867 60.6255 55.3177C60.5773 55.5802 60.6251 56.1053 60.6859 56.5035C60.7089 56.6541 60.7095 56.8577 60.71 57.0976C60.7106 57.3458 60.7111 57.633 60.7369 57.9402C60.8021 58.7165 60.8337 59.1291 60.859 59.4608C60.8662 59.5554 60.8728 59.6434 60.8796 59.7314C60.9012 60.0095 60.9191 60.3545 60.9371 60.7039C60.9586 61.1219 60.9804 61.5462 61.0096 61.8691C60.9787 62.7058 60.9405 63.5427 60.9024 64.3794C60.8827 64.8091 60.7712 65.2215 60.5876 65.5254C60.4037 65.8293 60.1641 65.9999 59.9157 65.9999C59.6672 65.9999 59.4276 65.8292 59.2437 65.5254C59.0601 65.2215 58.9485 64.8091 58.9287 64.3794C58.8892 63.5136 58.8498 62.6476 58.8184 61.7817C58.7801 60.727 58.7538 59.6721 58.7538 58.6174C58.7538 57.8795 58.7597 57.1416 58.7703 56.4038C58.7714 56.3278 58.7726 56.2518 58.7738 56.1759C58.7127 55.556 58.657 54.9373 58.6372 54.5014C58.6208 54.1415 58.6535 53.8791 58.6814 53.6544C58.7006 53.4998 58.7176 53.3629 58.7149 53.2245C58.7134 53.1501 58.7097 53.0486 58.7051 52.9261C58.6866 52.426 58.6552 51.5766 58.7149 50.8017C58.7414 50.4579 58.7936 50.0584 58.8434 49.6771C58.9147 49.1319 58.9811 48.6234 58.9607 48.3667C58.9249 47.916 58.9552 47.3991 58.9821 46.9423C59.0077 46.5066 59.0301 46.1255 58.9887 45.9088C58.9392 45.6499 58.9594 45.4291 58.9893 45.1007C59.01 44.873 59.0352 44.5936 59.0454 44.2137C59.0572 43.7753 59.0918 43.465 59.1213 43.2013C59.1628 42.8302 59.1939 42.551 59.1366 42.1348C59.0728 41.6725 59.0323 41.1894 59.0524 40.8089C59.0616 40.6356 59.0594 40.4373 59.057 40.231C59.0539 39.9579 59.0507 39.6707 59.0736 39.4084C59.0924 39.1923 59.1407 39.0136 59.1833 38.8556C59.1967 38.8063 59.2094 38.7589 59.2205 38.7131C59.2199 38.541 59.219 38.3688 59.2176 38.1967C59.2098 38.1688 59.2012 38.1395 59.1924 38.109C59.1479 37.9555 59.0933 37.7668 59.066 37.5332C59.023 37.1635 59.05 36.839 59.0786 36.4968C59.1008 36.2303 59.1241 35.9531 59.1158 35.6353C59.1101 35.4185 59.0904 35.1718 59.0708 34.9271C59.0418 34.5638 59.0133 34.205 59.0314 33.9558C59.0382 33.8623 59.0685 33.7821 59.0986 33.7026C59.0988 33.7022 59.099 33.7019 59.0992 33.7015C59.1012 33.6962 59.1032 33.6907 59.1053 33.6853C59.0822 33.0782 59.0568 32.4711 59.03 31.864C59.0222 31.8114 59.0145 31.7582 59.0069 31.7055C58.97 31.4481 58.9341 31.198 58.8832 31.0349C58.828 30.8581 58.7959 30.4137 58.762 29.9454C58.7399 29.6388 58.717 29.3217 58.6864 29.0629C58.6685 28.9116 58.6997 28.768 58.7318 28.6203C58.7619 28.4825 58.7927 28.341 58.7851 28.1864C58.7812 28.1089 58.7683 28.0253 58.7545 27.936C58.7423 27.8574 58.7294 27.7743 58.7215 27.6872C58.7142 27.6064 58.7312 27.4263 58.7528 27.1954C58.7662 27.0528 58.7813 26.8906 58.7937 26.7205C58.7743 26.2707 58.7556 25.8209 58.7383 25.3712C58.7109 25.2773 58.6754 25.1959 58.6298 25.1315C58.5971 25.0852 58.558 25.0459 58.5181 25.0054C58.4637 24.9504 58.4075 24.8934 58.3626 24.815C58.3276 24.7536 58.3137 24.6813 58.3282 24.6327C58.335 24.6101 58.3478 24.5927 58.3593 24.577C58.3726 24.5589 58.3843 24.5428 58.384 24.5231C58.3837 24.5089 58.3744 24.4941 58.363 24.476C58.3449 24.4469 58.3215 24.4092 58.3207 24.3518C58.3176 24.1381 58.3251 23.8953 58.3324 23.6574C58.3407 23.3928 58.3486 23.1342 58.3417 22.9282C58.3338 22.6974 58.3686 22.3685 58.4033 22.0391C58.4275 21.8093 58.4516 21.5791 58.4615 21.3817C58.4712 21.1882 58.452 20.9867 58.4332 20.7916C58.4106 20.5574 58.3888 20.3322 58.4194 20.1407C58.4256 20.102 58.4633 20.0539 58.5105 19.9936C58.544 19.9509 58.5822 19.9017 58.6175 19.8457C58.6175 19.602 58.619 19.3583 58.6219 19.1146C58.6168 19.106 58.6116 19.0972 58.6063 19.0883C58.6061 19.0882 58.606 19.088 58.6059 19.0879C58.4858 18.8878 58.3216 18.6139 58.4195 18.2291C58.4445 18.1313 58.4905 18.0697 58.5319 18.0143C58.5725 17.9598 58.6089 17.9111 58.6166 17.8398C58.6252 17.7588 58.6003 17.6633 58.5731 17.5591C58.535 17.4128 58.4924 17.2494 58.532 17.0854C58.5348 17.0742 58.5377 17.0621 58.5407 17.0496C58.5689 16.9308 58.6107 16.7548 58.6946 16.5797C58.7171 16.0602 58.7433 15.5407 58.772 15.0212C58.8198 14.1553 58.8742 13.2892 58.9287 12.4233C58.9555 12.0021 59.0699 11.5981 59.2529 11.3002C59.4363 11.0023 59.6719 10.835 59.9157 10.835C60.1594 10.835 60.3948 11.0024 60.5782 11.3002C60.7613 11.5981 60.8756 12.0021 60.9024 12.4233C60.9456 13.1103 60.9889 13.7974 61.0288 14.4844C61.0338 14.5204 61.0387 14.5565 61.0433 14.5925C61.0775 14.8603 61.146 15.1088 61.2147 15.3575C61.2305 15.4146 61.2463 15.4718 61.2617 15.5292Z" fill="black"/>
<path d="M42.056 31.2019C42.4955 31.0717 43.3467 31.0758 43.8117 31.0654C43.8203 31.0651 43.8288 31.0649 43.8374 31.0647C43.9483 31.0626 44.0523 31.0559 44.1731 31.0475C44.4645 31.0251 44.8564 31.0028 45.6629 30.9676C45.8981 30.9317 46.1222 30.8949 46.3496 30.854C46.959 30.7444 47.5655 30.6049 48.0288 30.4234C48.2559 30.3377 48.4444 30.2212 48.4729 30.1972C48.489 30.1873 48.452 30.2225 48.4235 30.3233C48.3936 30.4214 48.4086 30.543 48.4242 30.5708C48.4986 30.749 48.5071 30.6463 48.3531 30.5382C48.2173 30.4308 47.9946 30.3064 47.7436 30.1973C47.2415 29.979 46.6657 29.8114 46.0633 29.6737C46.0324 29.6688 46.0008 29.6638 45.9687 29.6589C45.3485 29.5615 44.5594 29.4943 44.0641 29.4183C43.4294 29.3198 42.9976 29.2601 42.6397 29.2114C40.5901 29.099 38.481 29.1942 36.538 29.7197C35.9357 29.8872 35.3517 30.1028 34.8417 30.3911C34.3753 30.6537 33.9794 30.9855 33.7809 31.3379C33.6827 31.5532 33.6638 31.7517 33.6842 31.931C33.7009 32.0837 33.7407 32.2121 33.7955 32.3572C33.8476 32.5052 33.8959 32.6394 33.938 32.761C34.1723 33.4528 34.4496 34.2183 34.7173 34.7487C34.7602 34.8353 34.8034 34.9183 34.8437 34.9922C35.1029 35.3855 35.3963 35.7468 35.7224 36.0687C35.7363 36.0977 35.7502 36.127 35.7645 36.1568C35.9469 36.5266 36.3109 36.875 36.9753 37.2808C37.2662 37.4563 37.6178 37.6402 38.0518 37.827C38.3311 37.9462 38.4668 38.0446 38.5758 38.1255C38.6083 38.1493 38.639 38.1714 38.6712 38.1914C38.7823 38.2603 38.9188 38.2654 39.0808 38.2679C39.2925 38.2713 39.5408 38.269 39.8437 38.3902C40.8278 38.7706 41.3266 38.6737 41.6759 38.6153C41.7807 38.5969 41.8769 38.5796 41.9714 38.5727C42.2814 38.5513 42.7211 38.6173 43.0537 38.6867C43.2422 38.7262 43.5622 38.7183 43.882 38.6855C44.0107 38.672 44.1371 38.6536 44.2516 38.633C44.4007 38.6064 44.6004 38.5989 44.8383 38.5836C45.083 38.568 45.3663 38.5439 45.6661 38.4835C46.4205 38.3284 46.8122 38.2131 47.1273 38.1237C47.2173 38.0976 47.2991 38.0731 47.3828 38.0472C47.6455 37.9661 47.9691 37.8671 48.2943 37.7555C48.6833 37.6227 49.0722 37.4714 49.3588 37.3373C50.1381 37.0905 50.9091 36.7935 51.6397 36.4411C52.017 36.2594 52.4075 36.1506 52.7526 36.1386C53.0968 36.1278 53.3727 36.2126 53.5254 36.4092C53.6808 36.6022 53.6836 36.9091 53.5051 37.252C53.3279 37.5941 52.9915 37.9314 52.5807 38.1761C51.7587 38.666 50.8959 39.085 50.0068 39.4325C48.9249 39.8547 47.7935 40.1714 46.6369 40.3527C45.8287 40.4794 45.0067 40.5466 44.1871 40.5503C44.1027 40.5507 44.018 40.5504 43.9331 40.5494C43.9161 40.551 43.8991 40.5525 43.882 40.554C43.23 40.6142 42.5737 40.645 42.1073 40.6351C41.7122 40.6272 41.4229 40.5682 41.1813 40.5154C41.0111 40.4785 40.8627 40.4441 40.7113 40.4275C40.6293 40.4185 40.515 40.4071 40.3796 40.3919C39.8263 40.3318 38.87 40.1853 38.0338 39.8431C37.6644 39.6942 37.2481 39.4774 36.8683 39.2409C36.3224 38.9054 35.8622 38.5267 35.6078 38.3686C35.1561 38.0939 34.7135 37.6656 34.3739 37.2556C34.0473 36.8657 33.8058 36.4965 33.6308 36.3153C33.4206 36.096 33.2995 35.8675 33.1438 35.5255C33.0366 35.2874 32.9131 34.9935 32.7532 34.5988C32.5685 34.1388 32.4897 33.8022 32.4272 33.5185C32.3667 33.2418 32.3275 33.0252 32.2533 32.7705C32.2106 32.6207 32.1693 32.4644 32.1317 32.2884C31.9842 31.668 32.1559 30.9135 32.4649 30.4836C32.5998 30.2832 32.7622 30.0739 32.951 29.8798C33.193 29.6294 33.4787 29.4061 33.7563 29.2533C33.9928 29.1228 34.1852 29.0725 34.3713 29.0236C34.4283 29.0091 34.4844 28.9951 34.5364 28.9821C34.706 28.8983 34.8819 28.8188 35.0635 28.7429C35.0897 28.7238 35.1191 28.7027 35.1465 28.6823C35.2851 28.5794 35.4621 28.4545 35.7068 28.3447C36.0774 28.177 36.4446 28.1037 36.8085 28.0446C37.1001 27.9968 37.3972 27.9562 37.7355 27.8842C37.9699 27.8345 38.2244 27.7715 38.4851 27.7129C38.8752 27.6253 39.2501 27.5526 39.5236 27.5427C39.6253 27.5391 39.7132 27.561 39.8012 27.5831C39.8015 27.5832 39.8019 27.5834 39.8023 27.5835C39.8083 27.585 39.8143 27.5865 39.8202 27.588C40.4692 27.5054 41.1192 27.4451 41.7722 27.4058C41.8286 27.3969 41.8856 27.3883 41.9421 27.38C42.2186 27.3394 42.4903 27.3048 42.6664 27.2563C42.8556 27.2032 43.3425 27.1804 43.8527 27.176C44.1912 27.1728 44.5312 27.1763 44.8223 27.1736C44.9903 27.1717 45.1422 27.2192 45.2982 27.2699C45.4485 27.3177 45.6001 27.3681 45.7688 27.3841C45.8537 27.3922 45.9442 27.3924 46.0438 27.3938C46.1339 27.3955 46.2287 27.3978 46.3261 27.4064C46.419 27.415 46.6044 27.4639 46.8597 27.5383C47.0176 27.5844 47.1931 27.6386 47.3721 27.6953C47.8866 27.8032 48.377 27.9294 48.9108 28.1444C49.0302 28.1674 49.1365 28.1793 49.2305 28.1757C49.3038 28.1761 49.3716 28.1677 49.4418 28.1607C49.5373 28.1512 49.6376 28.1434 49.7601 28.1671C49.8538 28.1842 49.9592 28.2382 50.0205 28.3009C50.0482 28.3293 50.0646 28.3576 50.0792 28.3832C50.0959 28.4127 50.1104 28.4389 50.1371 28.4599C50.1563 28.475 50.182 28.4838 50.2136 28.4955C50.2639 28.5144 50.3299 28.5398 50.406 28.6113C50.679 28.8716 50.9951 29.2595 51.1476 29.8411C51.1666 29.9152 51.1824 29.9909 51.1947 30.0678C51.3384 30.7704 51.002 31.6015 50.697 31.9545C50.3613 32.397 49.8505 32.6875 49.4178 32.859C49.1052 32.9849 48.8203 33.0644 48.5877 33.1322C48.3483 33.2021 48.1308 33.2844 47.9067 33.3615C47.648 33.4513 47.3939 33.5289 47.1734 33.5418C47.1287 33.5444 47.065 33.5185 46.99 33.4846C46.9372 33.4605 46.8765 33.4329 46.8088 33.4092C46.5376 33.4579 46.276 33.4974 46.0053 33.5324C45.9968 33.5388 45.988 33.5453 45.9792 33.5518C45.9791 33.552 45.9789 33.5521 45.9788 33.5523C45.7808 33.7009 45.4966 33.9037 45.0662 33.8501C44.9553 33.8366 44.8866 33.7971 44.8223 33.7617C44.7596 33.7269 44.7038 33.6957 44.626 33.6951C44.5378 33.6945 44.4355 33.7285 44.3267 33.7648C44.1733 33.8157 43.998 33.8719 43.8193 33.8445C43.8071 33.8427 43.794 33.8406 43.7804 33.8385C43.6512 33.8192 43.4583 33.7898 43.2663 33.7166C42.7093 33.7258 42.1537 33.7211 41.6002 33.706C40.6753 33.6806 39.7616 33.627 38.8407 33.5545C38.3997 33.5191 37.9666 33.3909 37.6636 33.1956C37.3525 32.9997 37.1938 32.7554 37.206 32.5121C37.2177 32.2686 37.3981 32.0422 37.7157 31.8714C38.026 31.7005 38.4514 31.5996 38.8798 31.5812C39.5867 31.5519 40.2928 31.5108 40.9956 31.4606C41.0325 31.455 41.0697 31.4495 41.1065 31.4443C41.3788 31.4056 41.6325 31.3309 41.8828 31.2545C41.9405 31.2369 41.9982 31.2192 42.056 31.2019Z" fill="black"/>
<path d="M35.7484 41.294C35.8336 41.1772 35.9979 41.2249 36.0883 41.2511C36.0899 41.2515 36.0916 41.2519 36.0933 41.2524C36.1147 41.2586 36.135 41.2602 36.1588 41.2619C36.2155 41.2661 36.2921 41.2718 36.4519 41.3463C36.4984 41.3435 36.5449 41.342 36.5915 41.342C37.0937 41.342 37.596 41.4391 38.0983 41.5554C38.1046 41.5548 38.1111 41.5542 38.1176 41.5536C38.2436 41.5415 38.3998 41.5266 38.498 41.5693C38.6228 41.6234 38.7075 41.6737 38.7771 41.7171C39.1761 41.8107 39.575 41.8943 39.974 41.9289C40.099 41.9397 40.2241 41.9456 40.3491 41.9456C40.4643 41.9456 40.5794 41.9419 40.6946 41.9349C40.7616 41.9095 40.8254 41.8793 40.8845 41.8513C40.9676 41.812 41.0415 41.7771 41.1026 41.7657C41.2498 41.7383 41.4168 41.7816 41.5408 41.8138C41.561 41.819 41.5802 41.824 41.5979 41.8283C41.6963 41.8124 41.7948 41.7953 41.8933 41.7779C41.8999 41.7876 41.9065 41.7977 41.9132 41.8081C41.9973 41.9375 42.1006 41.9359 42.2632 41.9335C42.334 41.9324 42.4161 41.9313 42.5127 41.9407C42.575 41.9467 42.607 41.998 42.6331 42.0399C42.6408 42.0522 42.648 42.0637 42.6553 42.0731C42.6803 42.1049 42.7067 42.0705 42.7378 42.0298C42.7782 41.977 42.8267 41.9136 42.8908 41.9709C43.0948 42.1534 43.1848 42.0296 43.2528 41.9359C43.2727 41.9084 43.2908 41.8836 43.3093 41.8698C43.3694 41.8251 43.4549 41.8694 43.5196 41.9302C43.5708 41.9784 43.6734 41.9306 43.7512 41.8698C43.7806 41.8468 43.8204 41.8462 43.8672 41.8456C43.9157 41.8451 43.9718 41.8446 44.0318 41.8188C44.1834 41.7536 44.264 41.722 44.3288 41.6967C44.3472 41.6895 44.3644 41.6829 44.3816 41.6761C44.4359 41.6544 44.5033 41.6366 44.5716 41.6186C44.6532 41.5971 44.7361 41.5752 44.7991 41.5461C44.9626 41.5769 45.126 41.6151 45.2894 41.6532C45.3734 41.673 45.4539 41.7844 45.5133 41.9681C45.5726 42.1519 45.6059 42.3916 45.606 42.64C45.606 42.8884 45.5726 43.1281 45.5133 43.3119C45.4539 43.4956 45.3734 43.6072 45.2894 43.627C45.1203 43.6664 44.9512 43.7059 44.7821 43.7373C44.5761 43.7755 44.3701 43.8019 44.164 43.8019C44.0199 43.8019 43.8758 43.796 43.7317 43.7853C43.7169 43.7842 43.702 43.783 43.6872 43.7818C43.5661 43.843 43.4453 43.8986 43.3601 43.9185C43.2899 43.9348 43.2386 43.9022 43.1947 43.8743C43.1645 43.8551 43.1378 43.8381 43.1107 43.8408C43.0962 43.8422 43.0764 43.846 43.0525 43.8505C42.9548 43.869 42.7889 43.9004 42.6375 43.8408C42.5704 43.8143 42.4924 43.7621 42.4179 43.7122C42.3114 43.641 42.2121 43.5745 42.162 43.5949C42.0739 43.6308 41.973 43.6004 41.8838 43.5736C41.7987 43.5479 41.7242 43.5256 41.6819 43.5669C41.6313 43.6164 41.5882 43.5963 41.5241 43.5664C41.4796 43.5457 41.425 43.5204 41.3508 43.5102C41.2652 43.4985 41.2046 43.4638 41.1531 43.4344C41.0806 43.3929 41.0261 43.3617 40.9448 43.4191C40.8545 43.4828 40.7601 43.5234 40.6858 43.5032C40.652 43.4941 40.6132 43.4963 40.573 43.4986C40.5196 43.5017 40.4635 43.5049 40.4123 43.4821C40.3701 43.4632 40.3352 43.415 40.3043 43.3723C40.2947 43.359 40.2854 43.3463 40.2765 43.3351C40.2429 43.3357 40.2093 43.3366 40.1756 43.3381C40.1702 43.3458 40.1645 43.3544 40.1585 43.3633C40.1285 43.4078 40.0917 43.4624 40.046 43.4896C39.9738 43.5327 39.9105 43.5057 39.8436 43.4771C39.7916 43.4548 39.7374 43.4316 39.6754 43.4399C39.633 43.4456 39.5848 43.4653 39.537 43.4848C39.4661 43.5138 39.396 43.5424 39.3473 43.5242C39.3291 43.5174 39.3134 43.4871 39.2979 43.457C39.2978 43.4568 39.2977 43.4567 39.2977 43.4565C39.2966 43.4544 39.2956 43.4524 39.2945 43.4504C39.1759 43.4735 39.0573 43.4989 38.9388 43.5257C38.9285 43.5335 38.9181 43.5412 38.9078 43.5487C38.8575 43.5856 38.8087 43.6215 38.7768 43.6725C38.7423 43.7277 38.6555 43.7598 38.5641 43.7936C38.5042 43.8158 38.4422 43.8387 38.3917 43.8693C38.3621 43.8872 38.3341 43.856 38.3052 43.8238C38.2783 43.7938 38.2507 43.763 38.2205 43.7706C38.2054 43.7744 38.189 43.7873 38.1716 43.8012C38.1562 43.8133 38.14 43.8262 38.123 43.8341C38.1072 43.8414 38.072 43.8245 38.0269 43.8028C37.9991 43.7895 37.9674 43.7744 37.9342 43.7619C37.8463 43.7814 37.7585 43.8 37.6706 43.8174C37.6523 43.8447 37.6364 43.8802 37.6238 43.9258C37.6148 43.9585 37.6071 43.9976 37.5992 44.0376C37.5885 44.092 37.5773 44.1482 37.562 44.193C37.55 44.228 37.5359 44.242 37.5264 44.2274C37.522 44.2207 37.5186 44.2079 37.5155 44.1963C37.512 44.1831 37.5089 44.1713 37.505 44.1717C37.5022 44.1719 37.4993 44.1813 37.4958 44.1926C37.4901 44.2108 37.4828 44.2342 37.4715 44.235C37.4298 44.2381 37.3824 44.2306 37.3359 44.2232C37.2842 44.215 37.2337 44.207 37.1935 44.214C37.1484 44.2218 37.0842 44.187 37.0198 44.1523C36.975 44.1281 36.93 44.104 36.8914 44.0941C36.8537 44.0844 36.8143 44.1037 36.7762 44.1225C36.7305 44.145 36.6865 44.1668 36.6491 44.1363C36.6415 44.1301 36.6321 44.0924 36.6203 44.0452C36.612 44.0117 36.6024 43.9734 36.5915 43.9382C36.5439 43.9382 36.4963 43.9366 36.4487 43.9337C36.447 43.9389 36.4453 43.9441 36.4435 43.9494C36.4435 43.9495 36.4435 43.9496 36.4434 43.9498C36.4044 44.0698 36.3509 44.2341 36.2757 44.1361C36.2566 44.1112 36.2446 44.0652 36.2337 44.0238C36.2231 43.9831 36.2136 43.9467 36.1997 43.9391C36.1839 43.9304 36.1652 43.9554 36.1448 43.9825C36.1163 44.0207 36.0844 44.0633 36.0523 44.0236C36.0501 44.0209 36.0478 44.0179 36.0453 44.015C36.0221 43.9867 35.9878 43.945 35.9536 43.861C35.8521 43.8386 35.7506 43.8123 35.6492 43.7837C35.48 43.7359 35.3109 43.6814 35.1418 43.627C35.0595 43.6002 34.9806 43.4858 34.9224 43.3027C34.8642 43.1194 34.8315 42.8837 34.8315 42.64C34.8315 42.3963 34.8642 42.1608 34.9224 41.9775C34.9806 41.7944 35.0595 41.68 35.1418 41.6532C35.2759 41.61 35.4101 41.5668 35.5443 41.5269C35.5514 41.5218 35.5584 41.5169 35.5654 41.5124C35.6178 41.4782 35.6663 41.4096 35.7148 41.3409C35.726 41.3251 35.7372 41.3093 35.7484 41.294ZM46.2844 41.294C46.3475 41.1772 46.4691 41.2249 46.5359 41.2511C46.5372 41.2515 46.5384 41.2519 46.5396 41.2524C46.5555 41.2586 46.5705 41.2602 46.5881 41.2619C46.6301 41.2661 46.6867 41.2718 46.805 41.3463C46.8394 41.3435 46.8739 41.342 46.9083 41.342C47.28 41.342 47.6517 41.4391 48.0234 41.5554C48.028 41.5548 48.0328 41.5542 48.0376 41.5536C48.1309 41.5415 48.2465 41.5266 48.3191 41.5693C48.4115 41.6234 48.4742 41.6737 48.5257 41.7171C48.8209 41.8107 49.1161 41.8943 49.4114 41.9289C49.5039 41.9397 49.5964 41.9456 49.689 41.9456C49.7742 41.9456 49.8594 41.9419 49.9446 41.9349C49.9942 41.9095 50.0414 41.8793 50.0851 41.8513C50.1466 41.812 50.2013 41.7771 50.2466 41.7657C50.3555 41.7383 50.479 41.7816 50.5708 41.8138C50.5858 41.819 50.5999 41.824 50.613 41.8283C50.6859 41.8124 50.7588 41.7953 50.8316 41.7779C50.8365 41.7876 50.8414 41.7977 50.8464 41.8081C50.9086 41.9375 50.985 41.9359 51.1054 41.9335C51.1578 41.9324 51.2185 41.9313 51.29 41.9407C51.3361 41.9467 51.3598 41.998 51.3791 42.0399C51.3848 42.0522 51.3901 42.0637 51.3955 42.0731C51.414 42.1049 51.4336 42.0705 51.4566 42.0298C51.4865 41.977 51.5224 41.9136 51.5698 41.9709C51.7208 42.1534 51.7873 42.0296 51.8377 41.9359C51.8524 41.9084 51.8658 41.8836 51.8795 41.8698C51.924 41.8251 51.9873 41.8694 52.0351 41.9302C52.073 41.9784 52.1489 41.9306 52.2065 41.8698C52.2282 41.8468 52.2577 41.8462 52.2923 41.8456C52.3282 41.8451 52.3697 41.8446 52.4141 41.8188C52.5263 41.7536 52.586 41.722 52.6339 41.6967C52.6476 41.6895 52.6603 41.6829 52.673 41.6761C52.7132 41.6544 52.7631 41.6366 52.8136 41.6186C52.874 41.5971 52.9353 41.5752 52.982 41.5461C53.1029 41.5769 53.2239 41.6151 53.3448 41.6532C53.4069 41.673 53.4665 41.7844 53.5104 41.9681C53.5543 42.1519 53.579 42.3916 53.579 42.64C53.579 42.8884 53.5543 43.1281 53.5104 43.3119C53.4665 43.4956 53.4069 43.6072 53.3448 43.627C53.2197 43.6664 53.0945 43.7059 52.9694 43.7373C52.8169 43.7755 52.6645 43.8019 52.512 43.8019C52.4054 43.8019 52.2987 43.796 52.1921 43.7853C52.1811 43.7842 52.1701 43.783 52.1591 43.7818C52.0695 43.843 51.9801 43.8986 51.9171 43.9185C51.8651 43.9348 51.8272 43.9022 51.7947 43.8743C51.7724 43.8551 51.7526 43.8381 51.7326 43.8408C51.7218 43.8422 51.7071 43.846 51.6894 43.8505C51.6172 43.869 51.4944 43.9004 51.3824 43.8408C51.3327 43.8143 51.275 43.7621 51.2199 43.7122C51.1411 43.641 51.0676 43.5745 51.0305 43.5949C50.9653 43.6308 50.8906 43.6004 50.8246 43.5736C50.7616 43.5479 50.7065 43.5256 50.6752 43.5669C50.6378 43.6164 50.6059 43.5963 50.5584 43.5664C50.5255 43.5457 50.4851 43.5204 50.4302 43.5102C50.3669 43.4985 50.322 43.4638 50.2839 43.4344C50.2303 43.3929 50.1899 43.3617 50.1298 43.4191C50.0629 43.4828 49.9931 43.5234 49.9381 43.5032C49.9131 43.4941 49.8844 43.4963 49.8546 43.4986C49.8151 43.5017 49.7736 43.5049 49.7357 43.4821C49.7045 43.4632 49.6787 43.415 49.6558 43.3723C49.6487 43.359 49.6418 43.3463 49.6352 43.3351C49.6103 43.3357 49.5855 43.3366 49.5606 43.3381C49.5566 43.3458 49.5523 43.3544 49.5479 43.3633C49.5257 43.4078 49.4984 43.4624 49.4647 43.4896C49.4112 43.5327 49.3644 43.5057 49.3149 43.4771C49.2764 43.4548 49.2363 43.4316 49.1904 43.4399C49.159 43.4456 49.1234 43.4653 49.088 43.4848C49.0355 43.5138 48.9837 43.5424 48.9476 43.5242C48.9341 43.5174 48.9225 43.4871 48.911 43.457C48.911 43.4568 48.9109 43.4567 48.9109 43.4565C48.9101 43.4544 48.9093 43.4524 48.9085 43.4504C48.8208 43.4735 48.7331 43.4989 48.6453 43.5257C48.6377 43.5335 48.63 43.5412 48.6224 43.5487C48.5852 43.5856 48.549 43.6215 48.5255 43.6725C48.4999 43.7277 48.4357 43.7598 48.368 43.7936C48.3237 43.8158 48.2779 43.8387 48.2405 43.8693C48.2186 43.8872 48.1978 43.856 48.1765 43.8238C48.1566 43.7938 48.1361 43.763 48.1138 43.7706C48.1026 43.7744 48.0905 43.7873 48.0776 43.8012C48.0662 43.8133 48.0542 43.8262 48.0416 43.8341C48.0299 43.8414 48.0039 43.8245 47.9706 43.8028C47.9499 43.7895 47.9265 43.7744 47.9019 43.7619C47.8369 43.7814 47.7719 43.8 47.7069 43.8174C47.6933 43.8447 47.6816 43.8802 47.6722 43.9258C47.6656 43.9585 47.6599 43.9976 47.654 44.0376C47.6461 44.092 47.6378 44.1482 47.6265 44.193C47.6176 44.228 47.6072 44.242 47.6002 44.2274C47.5969 44.2207 47.5944 44.2079 47.5921 44.1963C47.5895 44.1831 47.5872 44.1713 47.5843 44.1717C47.5823 44.1719 47.5801 44.1813 47.5775 44.1926C47.5733 44.2108 47.5679 44.2342 47.5596 44.235C47.5287 44.2381 47.4936 44.2306 47.4592 44.2232C47.421 44.215 47.3836 44.207 47.3538 44.214C47.3204 44.2218 47.2729 44.187 47.2253 44.1523C47.1921 44.1281 47.1588 44.104 47.1303 44.0941C47.1023 44.0844 47.0732 44.1037 47.045 44.1225C47.0112 44.145 46.9786 44.1668 46.9509 44.1363C46.9453 44.1301 46.9384 44.0924 46.9297 44.0452C46.9235 44.0117 46.9164 43.9734 46.9083 43.9382C46.8731 43.9382 46.8378 43.9366 46.8026 43.9337C46.8014 43.9389 46.8001 43.9441 46.7988 43.9494C46.7988 43.9495 46.7988 43.9496 46.7988 43.9498C46.7698 44.0698 46.7303 44.2341 46.6746 44.1361C46.6605 44.1112 46.6516 44.0652 46.6436 44.0238C46.6357 43.9831 46.6287 43.9467 46.6184 43.9391C46.6067 43.9304 46.5929 43.9554 46.5778 43.9825C46.5567 44.0207 46.533 44.0633 46.5093 44.0236C46.5077 44.0209 46.506 44.0179 46.5042 44.015C46.487 43.9867 46.4616 43.945 46.4362 43.861C46.3612 43.8386 46.2861 43.8123 46.211 43.7837C46.0858 43.7359 45.9607 43.6814 45.8355 43.627C45.7746 43.6002 45.7163 43.4858 45.6732 43.3027C45.6301 43.1194 45.606 42.8837 45.606 42.64C45.606 42.3963 45.6301 42.1608 45.6732 41.9775C45.7163 41.7944 45.7746 41.68 45.8355 41.6532C45.9348 41.61 46.0341 41.5668 46.1334 41.5269C46.1386 41.5218 46.1438 41.5169 46.149 41.5124C46.1877 41.4782 46.2237 41.4096 46.2596 41.3409C46.2679 41.3251 46.2761 41.3093 46.2844 41.294ZM47.0393 44.671C47.1561 44.8517 47.1084 45.2 47.0822 45.3916C47.0818 45.3951 47.0813 45.3986 47.0809 45.4021C47.0747 45.4476 47.0731 45.4906 47.0713 45.541C47.0671 45.6612 47.0614 45.8236 46.987 46.1625C46.9897 46.2611 46.9912 46.3597 46.9912 46.4583C46.9912 47.5231 46.8941 48.588 46.7778 49.6528C46.7784 49.6663 46.779 49.68 46.7796 49.6938C46.7917 49.9609 46.8066 50.292 46.764 50.5001C46.7098 50.7647 46.6595 50.9444 46.6161 51.0919C46.5226 51.9377 46.4389 52.7835 46.4044 53.6293C46.3935 53.8944 46.3876 54.1595 46.3876 54.4246C46.3876 54.6687 46.3913 54.9128 46.3983 55.1569C46.4237 55.2991 46.4539 55.4342 46.4819 55.5596C46.5212 55.7357 46.5561 55.8925 46.5675 56.022C46.595 56.334 46.5516 56.688 46.5195 56.9508C46.5142 56.9938 46.5092 57.0344 46.5049 57.0719C46.5209 57.2806 46.5379 57.4894 46.5554 57.6982C46.5457 57.7121 46.5355 57.7262 46.5252 57.7405C46.3957 57.9186 46.3974 58.1376 46.3998 58.4824C46.4008 58.6325 46.402 58.8066 46.3926 59.0114C46.3866 59.1434 46.3352 59.2112 46.2933 59.2666C46.281 59.2829 46.2695 59.2982 46.2602 59.3137C46.2283 59.3667 46.2628 59.4226 46.3035 59.4886C46.3563 59.5743 46.4197 59.6771 46.3624 59.8129C46.1798 60.2455 46.3037 60.4361 46.3974 60.5803C46.4249 60.6226 46.4497 60.661 46.4635 60.7002C46.5082 60.8275 46.4639 61.0089 46.4031 61.1459C46.3549 61.2546 46.4027 61.472 46.4635 61.6369C46.4865 61.6993 46.4871 61.7836 46.4876 61.8829C46.4882 61.9857 46.4887 62.1046 46.5145 62.2318C46.5797 62.5533 46.6113 62.7241 46.6366 62.8614C46.6438 62.9006 46.6503 62.9371 46.6572 62.9735C46.6788 63.0886 46.6967 63.2315 46.7146 63.3761C46.7362 63.5492 46.758 63.7249 46.7872 63.8586C46.7563 64.2051 46.7181 64.5516 46.68 64.898C46.6602 65.076 46.5488 65.2467 46.3652 65.3726C46.1813 65.4984 45.9416 65.569 45.6932 65.569C45.4448 65.569 45.2052 65.4984 45.0213 65.3726C44.8377 65.2467 44.7261 65.076 44.7063 64.898C44.6668 64.5395 44.6274 64.181 44.596 63.8224C44.5577 63.3857 44.5313 62.9489 44.5313 62.5122C44.5313 62.2067 44.5373 61.9012 44.5479 61.5956C44.549 61.5642 44.5502 61.5327 44.5514 61.5013C44.4902 61.2446 44.4346 60.9884 44.4148 60.8079C44.3984 60.6589 44.4311 60.5503 44.459 60.4572C44.4782 60.3932 44.4952 60.3365 44.4925 60.2792C44.491 60.2484 44.4873 60.2064 44.4827 60.1556C44.4642 59.9486 44.4328 59.5969 44.4925 59.276C44.519 59.1337 44.5712 58.9683 44.621 58.8104C44.6923 58.5846 44.7587 58.3741 44.7383 58.2678C44.7025 58.0812 44.7328 57.8671 44.7597 57.678C44.7853 57.4976 44.8077 57.3398 44.7663 57.2501C44.7168 57.1428 44.737 57.0514 44.7669 56.9155C44.7876 56.8212 44.8128 56.7055 44.823 56.5482C44.8348 56.3666 44.8694 56.2382 44.8989 56.129C44.9403 55.9753 44.9715 55.8597 44.9142 55.6874C44.8504 55.496 44.8099 55.2959 44.83 55.1384C44.8392 55.0666 44.837 54.9845 44.8346 54.8991C44.8315 54.786 44.8283 54.6671 44.8512 54.5585C44.87 54.469 44.9183 54.395 44.9609 54.3296C44.9742 54.3092 44.987 54.2896 44.9981 54.2706C44.9975 54.1993 44.9966 54.128 44.9952 54.0568C44.9874 54.0452 44.9788 54.0331 44.97 54.0204C44.9254 53.9569 44.8708 53.8788 44.8436 53.782C44.8006 53.6289 44.8275 53.4946 44.8562 53.3529C44.8784 53.2426 44.9017 53.1278 44.8934 52.9962C44.8877 52.9064 44.868 52.8042 44.8484 52.703C44.8194 52.5525 44.7909 52.404 44.809 52.3007C44.8158 52.2621 44.8461 52.2288 44.8762 52.1959C44.8764 52.1958 44.8766 52.1956 44.8768 52.1955C44.8788 52.1933 44.8808 52.191 44.8829 52.1888C44.8598 51.9374 44.8343 51.686 44.8075 51.4346C44.7998 51.4128 44.7921 51.3908 44.7845 51.369C44.7476 51.2624 44.7117 51.1589 44.6608 51.0913C44.6056 51.0181 44.5735 50.8341 44.5396 50.6402C44.5175 50.5132 44.4946 50.382 44.4639 50.2748C44.4461 50.2121 44.4773 50.1527 44.5094 50.0915C44.5394 50.0345 44.5703 49.9759 44.5626 49.9119C44.5588 49.8798 44.5459 49.8452 44.5321 49.8082C44.5199 49.7756 44.507 49.7412 44.4991 49.7052C44.4918 49.6717 44.5088 49.5972 44.5304 49.5016C44.5438 49.4425 44.5589 49.3753 44.5713 49.3049C44.5519 49.1187 44.5332 48.9324 44.5159 48.7462C44.4885 48.7073 44.453 48.6736 44.4074 48.6469C44.3747 48.6278 44.3356 48.6115 44.2956 48.5947C44.2413 48.572 44.1851 48.5484 44.1402 48.5159C44.1052 48.4905 44.0913 48.4605 44.1058 48.4404C44.1126 48.4311 44.1254 48.4239 44.1369 48.4173C44.1502 48.4099 44.1619 48.4032 44.1616 48.395C44.1613 48.3892 44.152 48.383 44.1406 48.3755C44.1225 48.3635 44.0991 48.3479 44.0983 48.3241C44.0952 48.2356 44.1026 48.1351 44.11 48.0366C44.1183 47.927 44.1262 47.8199 44.1192 47.7346C44.1114 47.6391 44.1462 47.5029 44.1809 47.3665C44.2051 47.2713 44.2292 47.176 44.2391 47.0943C44.2488 47.0142 44.2295 46.9308 44.2108 46.85C44.1882 46.753 44.1664 46.6597 44.1969 46.5805C44.2031 46.5644 44.2409 46.5445 44.2881 46.5196C44.3216 46.5019 44.3598 46.4815 44.3951 46.4583C44.3951 46.3574 44.3966 46.2565 44.3995 46.1556C44.3944 46.152 44.3892 46.1484 44.3838 46.1447C44.3837 46.1446 44.3836 46.1446 44.3835 46.1445C44.2634 46.0617 44.0991 45.9483 44.1971 45.7889C44.222 45.7484 44.2681 45.7229 44.3095 45.7C44.3501 45.6774 44.3865 45.6572 44.3942 45.6277C44.4028 45.5942 44.3779 45.5546 44.3507 45.5115C44.3126 45.4509 44.27 45.3833 44.3096 45.3154C44.3123 45.3107 44.3153 45.3057 44.3183 45.3005C44.3465 45.2513 44.3882 45.1785 44.4722 45.106C44.4947 44.8909 44.5209 44.6758 44.5496 44.4607C44.5973 44.1021 44.6518 43.7435 44.7063 43.385C44.7331 43.2106 44.8474 43.0433 45.0305 42.9199C45.2139 42.7966 45.4495 42.7273 45.6932 42.7273C45.9369 42.7273 46.1724 42.7966 46.3558 42.9199C46.5389 43.0433 46.6532 43.2106 46.68 43.385C46.7232 43.6694 46.7665 43.9539 46.8063 44.2384C46.8114 44.2533 46.8163 44.2683 46.8209 44.2832C46.855 44.3941 46.9236 44.4969 46.9923 44.5999C47.0081 44.6235 47.0239 44.6472 47.0393 44.671Z" fill="black"/>
<path d="M16.871 33.5849C16.9878 33.7365 16.9401 34.029 16.9139 34.1899C16.9135 34.1928 16.9131 34.1958 16.9127 34.1987C16.9064 34.2369 16.9048 34.273 16.9031 34.3154C16.8989 34.4163 16.8932 34.5526 16.8187 34.8371C16.8215 34.9199 16.823 35.0027 16.823 35.0855C16.823 35.9796 16.7259 36.8736 16.6096 37.7677C16.6102 37.779 16.6108 37.7905 16.6114 37.8021C16.6235 38.0263 16.6384 38.3044 16.5958 38.4791C16.5416 38.7012 16.4913 38.8521 16.4479 38.976C16.3543 39.6862 16.2707 40.3963 16.2361 41.1064C16.2253 41.329 16.2194 41.5516 16.2194 41.7742C16.2194 41.9791 16.2231 42.1841 16.2301 42.3891C16.2555 42.5084 16.2857 42.6219 16.3137 42.7272C16.353 42.875 16.3879 43.0067 16.3993 43.1154C16.4267 43.3774 16.3834 43.6746 16.3512 43.8953C16.346 43.9314 16.341 43.9654 16.3367 43.9969C16.3526 44.1722 16.3697 44.3475 16.3871 44.5228C16.3774 44.5345 16.3673 44.5463 16.3569 44.5583C16.2275 44.7079 16.2291 44.8918 16.2315 45.1812C16.2326 45.3073 16.2337 45.4534 16.2243 45.6254C16.2183 45.7362 16.167 45.7931 16.1251 45.8397C16.1128 45.8534 16.1013 45.8662 16.092 45.8792C16.0601 45.9237 16.0945 45.9706 16.1352 46.0261C16.188 46.098 16.2514 46.1843 16.1942 46.2983C16.0116 46.6616 16.1354 46.8216 16.2291 46.9427C16.2566 46.9782 16.2814 47.0104 16.2952 47.0434C16.34 47.1502 16.2957 47.3025 16.2348 47.4176C16.1866 47.5088 16.2344 47.6914 16.2952 47.8298C16.3182 47.8822 16.3188 47.953 16.3194 48.0364C16.3199 48.1227 16.3204 48.2225 16.3462 48.3293C16.4114 48.5992 16.443 48.7426 16.4683 48.858C16.4755 48.8908 16.4821 48.9215 16.489 48.952C16.5106 49.0487 16.5284 49.1687 16.5464 49.2901C16.5679 49.4355 16.5898 49.583 16.619 49.6952C16.5881 49.9861 16.5499 50.277 16.5118 50.5679C16.492 50.7173 16.3806 50.8607 16.1969 50.9664C16.0131 51.072 15.7734 51.1313 15.525 51.1313C15.2766 51.1313 15.0369 51.072 14.8531 50.9664C14.6694 50.8607 14.5578 50.7173 14.538 50.5679C14.4986 50.2669 14.4591 49.9659 14.4277 49.6648C14.3895 49.2981 14.3631 48.9314 14.3631 48.5647C14.3631 48.3082 14.369 48.0517 14.3797 47.7952C14.3808 47.7688 14.382 47.7423 14.3832 47.7159C14.322 47.5004 14.2664 47.2853 14.2465 47.1338C14.2302 47.0087 14.2628 46.9175 14.2907 46.8393C14.3099 46.7856 14.327 46.738 14.3242 46.6899C14.3228 46.664 14.319 46.6287 14.3145 46.5861C14.296 46.4123 14.2646 46.117 14.3242 45.8476C14.3507 45.728 14.4029 45.5892 14.4528 45.4566C14.524 45.267 14.5905 45.0903 14.5701 45.001C14.5342 44.8443 14.5646 44.6646 14.5914 44.5058C14.6171 44.3543 14.6394 44.2219 14.5981 44.1465C14.5486 44.0565 14.5688 43.9797 14.5986 43.8656C14.6193 43.7864 14.6446 43.6893 14.6548 43.5572C14.6665 43.4048 14.7012 43.2969 14.7306 43.2053C14.7721 43.0762 14.8033 42.9792 14.7459 42.8345C14.6822 42.6738 14.6416 42.5058 14.6618 42.3735C14.6709 42.3132 14.6687 42.2443 14.6664 42.1726C14.6633 42.0777 14.6601 41.9778 14.6829 41.8866C14.7018 41.8115 14.75 41.7494 14.7927 41.6944C14.806 41.6773 14.8187 41.6608 14.8299 41.6449C14.8293 41.5851 14.8284 41.5252 14.8269 41.4654C14.8192 41.4557 14.8106 41.4455 14.8017 41.4349C14.7572 41.3815 14.7026 41.3159 14.6754 41.2347C14.6323 41.1061 14.6593 40.9934 14.6879 40.8744C14.7102 40.7817 14.7334 40.6854 14.7251 40.5749C14.7194 40.4995 14.6997 40.4137 14.6802 40.3287C14.6512 40.2024 14.6226 40.0776 14.6408 39.991C14.6476 39.9585 14.6779 39.9306 14.708 39.903C14.7082 39.9028 14.7084 39.9027 14.7085 39.9026C14.7106 39.9007 14.7126 39.8988 14.7146 39.897C14.6915 39.6859 14.6661 39.4748 14.6393 39.2638C14.6315 39.2455 14.6238 39.227 14.6163 39.2087C14.5794 39.1192 14.5435 39.0322 14.4925 38.9755C14.4373 38.9141 14.4052 38.7596 14.3714 38.5968C14.3492 38.4901 14.3263 38.3799 14.2957 38.2899C14.2778 38.2373 14.309 38.1874 14.3412 38.1361C14.3712 38.0882 14.402 38.039 14.3944 37.9852C14.3906 37.9583 14.3777 37.9292 14.3638 37.8982C14.3517 37.8708 14.3388 37.8419 14.3309 37.8117C14.3236 37.7836 14.3406 37.721 14.3622 37.6407C14.3755 37.5911 14.3906 37.5347 14.4031 37.4756C14.3836 37.3192 14.365 37.1628 14.3476 37.0065C14.3203 36.9739 14.2848 36.9456 14.2392 36.9232C14.2065 36.9071 14.1674 36.8934 14.1274 36.8793C14.073 36.8602 14.0168 36.8404 13.972 36.8131C13.937 36.7918 13.923 36.7666 13.9376 36.7498C13.9443 36.7419 13.9571 36.7359 13.9687 36.7304C13.9819 36.7241 13.9937 36.7185 13.9934 36.7116C13.9931 36.7067 13.9837 36.7016 13.9724 36.6953C13.9542 36.6852 13.9308 36.6721 13.93 36.6521C13.9269 36.5778 13.9344 36.4934 13.9418 36.4107C13.95 36.3187 13.958 36.2288 13.951 36.1572C13.9432 36.0769 13.978 35.9626 14.0127 35.8481C14.0369 35.7682 14.061 35.6882 14.0709 35.6195C14.0806 35.5522 14.0613 35.4822 14.0425 35.4144C14.02 35.333 13.9982 35.2546 14.0287 35.1881C14.0349 35.1746 14.0726 35.1579 14.1199 35.1369C14.1533 35.1221 14.1916 35.105 14.2268 35.0855C14.2268 35.0008 14.2284 34.9161 14.2313 34.8314C14.2261 34.8284 14.2209 34.8253 14.2156 34.8222C14.2155 34.8222 14.2154 34.8221 14.2152 34.8221C14.0952 34.7525 13.9309 34.6573 14.0289 34.5235C14.0538 34.4895 14.0998 34.4681 14.1412 34.4488C14.1819 34.4299 14.2183 34.4129 14.2259 34.3882C14.2346 34.36 14.2096 34.3268 14.1825 34.2906C14.1443 34.2397 14.1017 34.1829 14.1414 34.1259C14.1441 34.122 14.1471 34.1178 14.1501 34.1134C14.1783 34.0721 14.22 34.0109 14.304 33.9501C14.3264 33.7695 14.3527 33.5889 14.3813 33.4083C14.4291 33.1072 14.4836 32.8061 14.538 32.5051C14.5648 32.3586 14.6792 32.2182 14.8623 32.1146C15.0456 32.0111 15.2813 31.9529 15.525 31.9529C15.7687 31.9529 16.0042 32.0111 16.1875 32.1146C16.3706 32.2182 16.485 32.3586 16.5118 32.5051C16.555 32.7439 16.5982 32.9828 16.6381 33.2216C16.6432 33.2341 16.6481 33.2467 16.6527 33.2592C16.6868 33.3523 16.7554 33.4387 16.8241 33.5252C16.8399 33.545 16.8557 33.5649 16.871 33.5849ZM4.10261 43.0679C4.38029 43.1521 4.7381 43.5216 4.93496 43.7248C4.9386 43.7285 4.94224 43.7322 4.94589 43.7359C4.99262 43.7841 5.03959 43.8265 5.09471 43.8761C5.22614 43.9942 5.40369 44.1539 5.73356 44.5347C5.84541 44.627 5.95647 44.7202 6.06654 44.8146C7.25526 45.8335 8.38076 46.9261 9.49379 48.0333C9.5092 48.0457 9.52487 48.0583 9.5407 48.0711C9.84669 48.3175 10.2261 48.623 10.4307 48.8545C10.6907 49.1488 10.8586 49.3589 10.9951 49.5331C11.8784 50.4134 12.7681 51.2862 13.6898 52.1217C13.9787 52.3836 14.2708 52.6417 14.5667 52.8954C14.8392 53.129 15.1142 53.3598 15.3912 53.588C15.5664 53.7048 15.737 53.8112 15.8951 53.9098C16.1173 54.0485 16.315 54.172 16.467 54.2873C16.5502 54.3504 16.6335 54.4184 16.7156 54.4889L15.383 54.5549C15.6379 54.289 15.9224 54.0371 16.1469 53.8385C16.1943 53.7965 16.2391 53.7568 16.2804 53.72C16.481 53.4871 16.6809 53.2535 16.8804 53.0196C16.9016 53.0115 16.9232 53.0036 16.9452 52.9956C17.2198 52.8958 17.4412 52.6619 17.7899 52.2939C17.9417 52.1337 18.1177 51.948 18.3327 51.7369C18.4712 51.6008 18.5772 51.5642 18.6638 51.5343C18.6892 51.5255 18.7131 51.5172 18.7355 51.5072C18.8125 51.4729 18.8444 51.3897 18.8821 51.2914C18.931 51.1639 18.9896 51.0108 19.169 50.9062C19.7406 50.5727 19.8449 50.2845 19.9237 50.0666C19.9469 50.0026 19.9679 49.9447 19.9978 49.8935C20.0949 49.7273 20.3112 49.5653 20.4944 49.4617C20.6397 49.3795 20.8261 49.1155 20.9498 48.8982C20.9965 48.8161 21.0818 48.7261 21.1823 48.6202C21.2864 48.5106 21.4068 48.3839 21.5175 48.231C21.7971 47.8443 21.9478 47.641 22.0691 47.4776C22.1037 47.431 22.136 47.3877 22.1681 47.3443C22.2695 47.207 22.4018 47.0429 22.5358 46.8767C22.6962 46.678 22.8589 46.4762 22.9737 46.314C23.3482 45.9672 23.7279 45.6254 24.1075 45.2837C24.3027 45.1083 24.5567 45.0039 24.8173 44.9971C25.078 44.9905 25.3231 45.0811 25.5026 45.2528C25.6821 45.4245 25.7835 45.6653 25.7884 45.926C25.7933 46.1867 25.7004 46.4452 25.5338 46.648C25.198 47.0561 24.8621 47.4644 24.5204 47.867C24.1042 48.3575 23.6794 48.8398 23.2355 49.3038C22.9251 49.6284 22.6103 49.949 22.2921 50.2662C22.2593 50.2989 22.2265 50.3315 22.1936 50.3641C21.977 50.679 21.7568 50.9897 21.5877 51.1952C21.4481 51.3648 21.3141 51.4577 21.1994 51.5372C21.1204 51.592 21.0505 51.6404 20.9942 51.7032C20.964 51.7369 20.924 51.7842 20.8757 51.8412C20.6786 52.0741 20.3439 52.4694 19.9747 52.7691C19.8109 52.902 19.6051 53.0417 19.4086 53.175C19.1276 53.3656 18.8657 53.5434 18.7724 53.6704C18.6086 53.8935 18.3692 54.0999 18.1575 54.2823C17.9557 54.4563 17.7792 54.6085 17.7179 54.7324C17.6446 54.8805 17.5371 54.9637 17.3774 55.0875C17.2666 55.1734 17.1308 55.2789 16.9636 55.4389C16.8317 55.5652 16.7173 55.6577 16.6159 55.7342L16.0437 56.234L15.6054 55.7842C15.5674 55.7392 15.5331 55.6968 15.5005 55.6566C15.356 55.4781 15.2472 55.3438 15.0175 55.2225C14.7624 55.0877 14.5126 54.9271 14.3498 54.761C14.2757 54.6854 14.1826 54.6085 14.0857 54.5286C13.9575 54.4227 13.8226 54.3113 13.7163 54.1901C13.6287 54.0901 13.5775 53.9828 13.5322 53.8877C13.5181 53.8581 13.5044 53.8297 13.4905 53.803C13.4106 53.7353 13.3304 53.6678 13.2499 53.6007C13.232 53.5955 13.2128 53.5904 13.1929 53.5851C13.093 53.5581 12.9703 53.5247 12.8446 53.4529C12.6457 53.3391 12.5133 53.1901 12.3737 53.0327C12.265 52.9102 12.152 52.7827 11.9997 52.6632C11.8958 52.5816 11.7689 52.4988 11.6431 52.4167C11.4563 52.2948 11.2719 52.1743 11.1685 52.0618C11.1297 52.0196 11.1123 51.9648 11.0952 51.9104C11.0952 51.9102 11.0951 51.9099 11.0951 51.9096C11.0939 51.9059 11.0927 51.9023 11.0915 51.8986C10.7959 51.6756 10.4987 51.4543 10.2006 51.2341C10.1713 51.2192 10.1417 51.204 10.1124 51.1888C9.96939 51.1149 9.83043 51.043 9.72189 51.0171C9.60426 50.989 9.37796 50.8373 9.13947 50.6774C8.98329 50.5728 8.82184 50.4645 8.68227 50.3852C8.60068 50.3389 8.55463 50.2583 8.5073 50.1754C8.46315 50.098 8.41781 50.0185 8.34136 49.963C8.30307 49.9352 8.25599 49.9119 8.20572 49.887C8.16147 49.8651 8.11466 49.842 8.0693 49.8135C8.02716 49.787 7.955 49.7028 7.86235 49.5949C7.80509 49.5282 7.73998 49.4525 7.66941 49.3757C7.44887 49.2122 7.22881 49.0482 7.00964 48.8832C6.94847 48.8668 6.88773 48.8615 6.82827 48.8705C6.78561 48.8771 6.74197 48.8911 6.69726 48.9055C6.63643 48.925 6.57353 48.9451 6.50809 48.948C6.45695 48.9503 6.41443 48.9322 6.40145 48.9019C6.39541 48.8878 6.39569 48.8712 6.39592 48.8562C6.39619 48.839 6.3964 48.8237 6.38708 48.8161C6.38035 48.8107 6.36741 48.812 6.35163 48.8134C6.32643 48.8157 6.29376 48.8185 6.26668 48.7964C6.1659 48.7141 6.05852 48.6122 5.95336 48.5123C5.83642 48.4012 5.72208 48.2927 5.62231 48.2164C5.51053 48.1309 5.38117 47.9742 5.25148 47.8173C5.16101 47.7079 5.07031 47.5984 4.98548 47.5127C4.90234 47.4287 4.79669 47.3635 4.69428 47.3004C4.57135 47.2248 4.45305 47.152 4.38443 47.053C4.37057 47.033 4.37291 46.9853 4.37576 46.9255C4.37777 46.8832 4.37993 46.8347 4.377 46.7857C4.26437 46.6892 4.15272 46.5914 4.04196 46.4927C4.03466 46.4932 4.02718 46.4936 4.01961 46.4942C4.01947 46.4942 4.01932 46.4942 4.01918 46.4943C3.84852 46.5062 3.61503 46.5224 3.50095 46.2955C3.47194 46.2378 3.47343 46.1785 3.47473 46.1251C3.47601 46.0726 3.47719 46.0257 3.44922 45.9917C3.41744 45.953 3.35701 45.9341 3.29118 45.9134C3.19874 45.8844 3.09548 45.852 3.0455 45.7569C3.04209 45.7505 3.03845 45.7434 3.0346 45.7362C2.99802 45.6677 2.94384 45.5663 2.91757 45.4331C2.69204 45.2103 2.46898 44.9845 2.24752 44.757C1.87836 44.3776 1.51347 43.9931 1.14869 43.6087C0.971423 43.4215 0.859121 43.1746 0.840588 42.9175C0.822215 42.6603 0.898193 42.4151 1.05681 42.23C1.21542 42.045 1.44604 41.9325 1.70304 41.9114C1.95988 41.8904 2.22104 41.9636 2.4332 42.1101C2.77882 42.3495 3.12458 42.5889 3.46807 42.8308C3.48801 42.8412 3.50791 42.8518 3.52753 42.8626C3.67355 42.9428 3.83304 42.9891 3.99268 43.0355C4.02935 43.0462 4.06609 43.0568 4.10261 43.0679ZM18.5299 59.8248C18.687 59.9572 18.7346 60.2781 18.7665 60.4528C18.7672 60.456 18.7678 60.4592 18.7684 60.4623C18.7758 60.5038 18.787 60.5415 18.8004 60.5855C18.8332 60.69 18.8747 60.8315 18.9205 61.1369C18.9567 61.2164 18.9924 61.2942 19.0277 61.3711C19.2598 61.9113 19.6092 62.414 19.6738 62.4841C19.9402 62.6528 20.2523 62.8291 20.5615 62.9954C20.5738 62.9997 20.5865 63.0041 20.5994 63.0086C20.8451 63.0937 21.151 63.1905 21.3333 63.2994C21.5568 63.4352 21.7131 63.5393 21.8383 63.6253C22.6098 63.9722 23.4117 64.2714 24.2346 64.485C24.4906 64.5516 24.7535 64.6106 25.0153 64.6595C25.2627 64.7057 25.4961 64.7423 25.7458 64.7753C25.8892 64.7725 26.0275 64.7629 26.1569 64.7535C26.3406 64.7405 26.4973 64.7264 26.6278 64.7317C26.9448 64.7452 27.2852 64.8264 27.5498 64.8841C27.5916 64.8934 27.6313 64.9022 27.6681 64.9099C27.8756 64.9131 28.0915 64.9136 28.2986 64.9107C28.3117 64.9213 28.325 64.9324 28.3385 64.9438C28.5054 65.0849 28.7336 65.0983 29.076 65.1111C29.2258 65.1166 29.4063 65.1222 29.6094 65.1369C29.7414 65.1463 29.8089 65.1988 29.8642 65.2416C29.8805 65.2542 29.8959 65.266 29.9114 65.2756C29.9648 65.3083 30.0224 65.2746 30.0901 65.2345C30.1795 65.1826 30.2799 65.1198 30.4169 65.177C30.8559 65.3584 31.0489 65.2281 31.1905 65.131C31.2323 65.1024 31.2702 65.0764 31.3094 65.0614C31.4362 65.0128 31.6217 65.05 31.7607 65.1043C31.8717 65.1476 32.0888 65.0884 32.2521 65.0171C32.3147 64.9901 32.3971 64.9841 32.4965 64.9765C32.5989 64.9687 32.7181 64.9592 32.8439 64.9229C33.1645 64.8306 33.3252 64.782 33.4608 64.7427C33.4991 64.7314 33.5348 64.7211 33.5704 64.7103C33.6831 64.6765 33.8243 64.6425 33.9638 64.6075C34.1318 64.5655 34.3031 64.521 34.432 64.4738C34.7775 64.4574 35.1258 64.4421 35.4733 64.4209C35.6507 64.4104 35.8385 64.4893 35.9982 64.6461C36.1577 64.8031 36.2757 65.0241 36.3234 65.2679C36.371 65.5116 36.3441 65.7613 36.2471 65.9667C36.1501 66.1719 35.9908 66.3145 35.8087 66.3659C35.4393 66.4696 35.0677 66.5669 34.6919 66.6498C34.2339 66.7509 33.7706 66.8303 33.3076 66.873C32.9804 66.9032 32.6546 66.9222 32.3277 66.9316C32.2937 66.9326 32.2598 66.9334 32.226 66.9342C31.9528 67.0115 31.6869 67.0786 31.4896 67.1052C31.329 67.1272 31.2114 67.0976 31.1114 67.072C31.0426 67.0544 30.982 67.0385 30.9212 67.0423C30.8889 67.0443 30.8426 67.0488 30.788 67.054C30.5628 67.0757 30.1912 67.1083 29.8433 67.0424C29.6901 67.0133 29.5179 66.957 29.3494 66.9016C29.1081 66.8225 28.8892 66.7456 28.7764 66.7602C28.5757 66.7859 28.347 66.7414 28.1506 66.7004C27.9635 66.6614 27.7938 66.6248 27.6962 66.6579C27.5781 66.6973 27.4844 66.6686 27.3436 66.6249C27.2445 66.5944 27.1237 66.5568 26.9595 66.5284C26.7711 66.4957 26.6386 66.4447 26.5267 66.401C26.3691 66.3393 26.2554 66.2929 26.0663 66.3243C25.8538 66.3587 25.6391 66.367 25.4783 66.3207C25.4034 66.2994 25.3162 66.2873 25.2263 66.2744C25.1067 66.2573 24.9849 66.2392 24.8745 66.1959C24.783 66.1601 24.7143 66.0981 24.6543 66.0433C24.6356 66.0262 24.6176 66.0098 24.6001 65.995C24.5263 65.9814 24.4532 65.968 24.3801 65.9548C24.3664 65.96 24.3519 65.9658 24.3368 65.9718C24.2611 66.002 24.168 66.0387 24.0619 66.0441C23.8944 66.0528 23.7619 65.9961 23.6192 65.9344C23.5087 65.8864 23.3986 65.8368 23.2604 65.8121C23.1648 65.7949 23.0541 65.788 22.9457 65.7807C22.7875 65.7707 22.6215 65.7564 22.521 65.7105C22.483 65.6933 22.4571 65.6548 22.4317 65.6166C22.4316 65.6164 22.4315 65.6162 22.4314 65.616C22.4297 65.6134 22.4279 65.6108 22.4262 65.6083C22.161 65.5595 21.9022 65.5111 21.6326 65.4565C21.6081 65.4571 21.5834 65.4576 21.5591 65.4579C21.4419 65.4603 21.3234 65.4603 21.2378 65.4862C21.1442 65.5141 20.9511 65.485 20.7374 65.4472C20.6023 65.4241 20.4585 65.3974 20.3379 65.3861C20.2672 65.3795 20.2208 65.3291 20.1685 65.2753C20.1188 65.2247 20.0694 65.173 20.0021 65.1554C19.9685 65.1465 19.9293 65.1453 19.888 65.144C19.852 65.143 19.8089 65.1399 19.7691 65.1326C19.7316 65.1256 19.6608 65.0792 19.5758 65.0209C19.5197 64.9835 19.4544 64.94 19.3895 64.8989C19.1957 64.8379 18.9921 64.7678 18.7997 64.6954C18.7452 64.6997 18.6942 64.7145 18.6465 64.7419C18.6123 64.7616 18.5784 64.7885 18.5437 64.8159C18.5246 64.831 18.5052 64.8464 18.4854 64.8609C18.4447 64.8762 18.4013 64.8883 18.3538 64.8927C18.2914 64.8987 18.2305 64.8792 18.2034 64.8454C18.1907 64.8297 18.1851 64.811 18.1807 64.7946C18.1755 64.7756 18.1711 64.7588 18.1579 64.7506C18.1483 64.7446 18.1334 64.746 18.115 64.7474C18.0859 64.7496 18.0475 64.7519 18.0097 64.7259C17.8697 64.6298 17.7354 64.5064 17.6223 64.387C17.494 64.2522 17.3889 64.1209 17.3022 64.027C17.2022 63.919 17.1097 63.7382 17.0363 63.565C16.9827 63.4411 16.9388 63.3238 16.8929 63.2262C16.8494 63.133 16.7798 63.0475 16.7161 62.9674C16.6387 62.8697 16.5675 62.7754 16.5527 62.6739C16.5497 62.6535 16.573 62.6147 16.603 62.5675C16.6243 62.534 16.6486 62.4958 16.6692 62.456C16.6188 62.3466 16.5729 62.2374 16.53 62.1271C16.5237 62.1252 16.5172 62.1233 16.5106 62.1213C16.5105 62.1213 16.5103 62.1213 16.5102 62.1213C16.3627 62.079 16.1583 62.0124 16.1846 61.8034C16.1914 61.7503 16.2244 61.7065 16.2542 61.6676C16.2835 61.6293 16.3099 61.5953 16.3058 61.561C16.3011 61.5221 16.2625 61.4879 16.2207 61.4502C16.1621 61.3975 16.0969 61.3375 16.1105 61.2517C16.1114 61.2459 16.1125 61.2396 16.1134 61.2331C16.1228 61.1711 16.1373 61.0797 16.1935 60.9774C16.1434 60.7409 16.1031 60.5039 16.0705 60.2676C16.016 59.8726 15.9821 59.4785 15.9611 59.0838C15.9508 58.8898 16.0327 58.6925 16.1921 58.5293C16.3522 58.3687 16.5757 58.2636 16.8171 58.2301C17.0583 58.1953 17.3009 58.2309 17.5008 58.3203C17.7009 58.4128 17.8403 58.5472 17.8989 58.709C17.9934 58.9701 18.0953 59.2302 18.1999 59.486C18.2083 59.4987 18.2166 59.5116 18.2246 59.5245C18.2834 59.6184 18.375 59.6972 18.4668 59.7724C18.4879 59.7899 18.5091 59.8073 18.5299 59.8248Z" fill="black"/>
<path d="M61.0461 2.36215C61.1629 2.37578 61.1152 2.40207 61.089 2.41653C61.0886 2.4168 61.0882 2.41706 61.0877 2.41733C61.0815 2.42076 61.0799 2.42401 61.0782 2.42781C61.074 2.43688 61.0683 2.44914 60.9938 2.47471C60.9966 2.48215 60.9981 2.4896 60.9981 2.49704C60.9981 2.5774 60.9009 2.65777 60.7846 2.73814C60.7852 2.73915 60.7859 2.74018 60.7865 2.74123C60.7985 2.76138 60.8135 2.78638 60.7708 2.80208C60.7166 2.82205 60.6664 2.83561 60.623 2.84675C60.5294 2.91058 60.4458 2.97441 60.4112 3.03825C60.4004 3.05825 60.3945 3.07826 60.3945 3.09827C60.3945 3.11669 60.3982 3.13512 60.4051 3.15354C60.4306 3.16427 60.4608 3.17447 60.4887 3.18393C60.5281 3.19722 60.563 3.20905 60.5744 3.21883C60.6018 3.24238 60.5585 3.26909 60.5263 3.28893C60.521 3.29217 60.5161 3.29523 60.5118 3.29806C60.5277 3.31382 60.5448 3.32958 60.5622 3.34533C60.5525 3.34639 60.5424 3.34745 60.532 3.34852C60.4025 3.36197 60.4042 3.3785 60.4066 3.40452C60.4077 3.41585 60.4088 3.42898 60.3994 3.44444C60.3934 3.45441 60.3421 3.45952 60.3002 3.4637C60.2879 3.46493 60.2763 3.46609 60.267 3.46726C60.2352 3.47126 60.2696 3.47548 60.3103 3.48046C60.3631 3.48693 60.4265 3.49468 60.3692 3.50493C60.1867 3.53758 60.3105 3.55197 60.4042 3.56285C60.4317 3.56605 60.4565 3.56894 60.4703 3.5719C60.515 3.58151 60.4707 3.5952 60.4099 3.60554C60.3617 3.61374 60.4095 3.63015 60.4703 3.6426C60.4933 3.6473 60.4939 3.65367 60.4944 3.66116C60.495 3.66892 60.4955 3.67789 60.5213 3.68749C60.5865 3.71175 60.6181 3.72465 60.6434 3.73501C60.6506 3.73797 60.6572 3.74072 60.664 3.74347C60.6857 3.75216 60.7035 3.76294 60.7215 3.77386C60.743 3.78692 60.7649 3.80018 60.794 3.81027C60.7632 3.83642 60.725 3.86257 60.6869 3.88872C60.6671 3.90215 60.5557 3.91503 60.372 3.92453C60.1882 3.93403 59.9485 3.93936 59.7001 3.93936C59.4517 3.93936 59.212 3.93403 59.0282 3.92453C58.8445 3.91503 58.7329 3.90215 58.7131 3.88872C58.6737 3.86166 58.6342 3.8346 58.6028 3.80754C58.5645 3.77458 58.5382 3.74162 58.5382 3.70865C58.5382 3.6856 58.5441 3.66254 58.5548 3.63948C58.5558 3.63711 58.5571 3.63473 58.5583 3.63236C58.4971 3.61299 58.4415 3.59365 58.4216 3.58003C58.4053 3.56878 58.4379 3.56058 58.4658 3.55356C58.485 3.54873 58.502 3.54445 58.4993 3.54013C58.4979 3.5378 58.4941 3.53463 58.4896 3.5308C58.4711 3.51517 58.4396 3.48863 58.4993 3.46442C58.5258 3.45367 58.578 3.44119 58.6279 3.42927C58.6991 3.41223 58.7656 3.39634 58.7451 3.38832C58.7093 3.37424 58.7396 3.35808 58.7665 3.34381C58.7921 3.33019 58.8145 3.31828 58.7731 3.31151C58.7237 3.30342 58.7438 3.29652 58.7737 3.28626C58.7944 3.27914 58.8197 3.27041 58.8299 3.25854C58.8416 3.24484 58.8763 3.23514 58.9057 3.2269C58.9472 3.21531 58.9784 3.20658 58.921 3.19358C58.8573 3.17913 58.8167 3.16403 58.8368 3.15214C58.846 3.14672 58.8438 3.14053 58.8415 3.13408C58.8384 3.12555 58.8352 3.11657 58.858 3.10837C58.8769 3.10162 58.9251 3.09604 58.9678 3.0911C58.9811 3.08956 58.9938 3.08808 59.005 3.08665C59.0044 3.08127 59.0034 3.07589 59.002 3.07051C58.9943 3.06964 58.9857 3.06872 58.9768 3.06777C58.9323 3.06297 58.8777 3.05707 58.8505 3.04977C58.8074 3.03822 58.8344 3.02808 58.863 3.01739C58.8853 3.00906 58.9085 3.0004 58.9002 2.99046C58.8945 2.98369 58.8748 2.97598 58.8553 2.96833C58.8263 2.95698 58.7977 2.94577 58.8159 2.93798C58.8227 2.93506 58.8529 2.93255 58.8831 2.93007C58.8833 2.93006 58.8834 2.93005 58.8836 2.93003C58.8857 2.92987 58.8877 2.9297 58.8897 2.92953C58.8666 2.91056 58.8412 2.89158 58.8144 2.87261C58.8066 2.87097 58.7989 2.86931 58.7914 2.86766C58.7544 2.85962 58.7186 2.8518 58.6676 2.8467C58.6124 2.84118 58.5803 2.82729 58.5465 2.81266C58.5243 2.80307 58.5014 2.79316 58.4708 2.78508C58.4529 2.78035 58.4841 2.77586 58.5163 2.77125C58.5463 2.76694 58.5771 2.76252 58.5695 2.75769C58.5657 2.75527 58.5527 2.75265 58.5389 2.74986C58.5268 2.7474 58.5139 2.74481 58.506 2.74209C58.4986 2.73956 58.5156 2.73393 58.5373 2.72672C58.5506 2.72226 58.5657 2.71719 58.5781 2.71188C58.5587 2.69782 58.54 2.68376 58.5227 2.66971C58.4954 2.66678 58.4598 2.66423 58.4143 2.66222C58.3815 2.66077 58.3425 2.65954 58.3025 2.65828C58.2481 2.65656 58.1919 2.65478 58.1471 2.65233C58.1121 2.65041 58.0981 2.64815 58.1126 2.64663C58.1194 2.64593 58.1322 2.64538 58.1438 2.64489C58.157 2.64433 58.1688 2.64382 58.1684 2.64321C58.1682 2.64276 58.1588 2.6423 58.1474 2.64174C58.1293 2.64083 58.1059 2.63965 58.1051 2.63786C58.102 2.63118 58.1095 2.62359 58.1169 2.61615C58.1251 2.60789 58.1331 2.59981 58.1261 2.59337C58.1183 2.58616 58.1531 2.57588 58.1878 2.56558C58.212 2.5584 58.2361 2.55121 58.246 2.54504C58.2556 2.53899 58.2364 2.5327 58.2176 2.5266C58.195 2.51928 58.1733 2.51224 58.2038 2.50626C58.21 2.50505 58.2477 2.50355 58.2949 2.50166C58.3284 2.50033 58.3667 2.49879 58.4019 2.49704C58.4019 2.48942 58.4035 2.48181 58.4063 2.47419C58.4012 2.47393 58.396 2.47365 58.3907 2.47337C58.3906 2.47337 58.3904 2.47336 58.3903 2.47336C58.2702 2.4671 58.106 2.45855 58.204 2.44652C58.2289 2.44346 58.2749 2.44154 58.3163 2.43981C58.357 2.4381 58.3933 2.43658 58.401 2.43436C58.4097 2.43183 58.3847 2.42884 58.3575 2.42558C58.3194 2.42101 58.2768 2.4159 58.3165 2.41078C58.3192 2.41043 58.3222 2.41005 58.3251 2.40966C58.3533 2.40595 58.3951 2.40045 58.4791 2.39498C58.5015 2.37874 58.5277 2.36251 58.5564 2.34627C58.6042 2.31921 58.6587 2.29215 58.7131 2.26509C58.7399 2.25193 58.8543 2.2393 59.0374 2.22999C59.2207 2.22068 59.4564 2.21545 59.7001 2.21545C59.9438 2.21545 60.1793 2.22069 60.3626 2.22999C60.5457 2.2393 60.6601 2.25193 60.6869 2.26509C60.7301 2.28656 60.7733 2.30803 60.8132 2.3295C60.8182 2.33062 60.8231 2.33175 60.8277 2.33288C60.8619 2.34125 60.9305 2.34901 60.9992 2.35678C61.0149 2.35857 61.0308 2.36036 61.0461 2.36215Z" fill="black"/>
</svg>
